<?xml version="1.0" encoding="utf-8"?>
<!-- Generator: Adobe Illustrator 25.3.1, SVG Export Plug-In . SVG Version: 6.00 Build 0)  -->
<svg version="1.1" id="Layer_1" xmlns="http://www.w3.org/2000/svg" xmlns:xlink="http://www.w3.org/1999/xlink" x="0px" y="0px"
	 viewBox="0 0 2048 2048" style="enable-background:new 0 0 2048 2048;" xml:space="preserve">
<style type="text/css">
	.st0{fill:#241C47;}
	.st1{fill:#2DB4CE;}
	.st2{fill:#423F54;stroke:#000000;stroke-miterlimit:10;}
	.st3{fill:#FFFFFF;}
	.st4{fill:#3695A8;}
	.st5{fill:#423F54;}
	.st6{fill:#FDDABA;}
	.st7{fill:#EBBBA1;}
	.st8{fill:#655F85;}
	.st9{fill:#C3F1FE;}
	.st10{fill:#F5D47A;}
	.st11{fill:#FFBF59;}
	.st12{fill:#B063EB;}
	.st13{fill:#AD6D34;}
	.st14{fill:#D095FC;}
	.st15{fill:#DFB5FF;}
	.st16{fill:#C47DFA;}
	.st17{fill:#B96CF5;}
	.st18{fill:#8E47C4;}
	.st19{fill:#6CF5EE;}
	.st20{fill:#52249B;}
	.st21{fill:#262533;}
	.st22{fill:#E1EBED;}
	.st23{fill:#C7D1D4;}
	.st24{fill:#E6413C;}
	.st25{fill:#ABBCC2;}
	.st26{fill:#AA4CC7;}
</style>
<rect class="st0" width="2048" height="2048"/>
<path class="st3" d="M602.89,238.94c-1.32,0.23-2.56,0.95-3.4,2c-0.85,1.04-1.3,2.4-1.24,3.74c0.02,0.5,0.19,1.09,0.68,1.2
	c0.41,0.1,0.82-0.24,1.02-0.61c0.2-0.37,0.29-0.81,0.52-1.17c0.86-1.33,3.14-0.93,4.11-2.19c0.39-0.5,0.47-1.22,0.21-1.8
	C604.52,239.55,603.93,239.14,602.89,238.94z"/>
<path class="st3" d="M598.83,247.53c-0.41,0.48-0.83,0.98-1.01,1.59c-0.18,0.6-0.05,1.35,0.47,1.71c0.58,0.4,1.46,0.15,1.86-0.44
	c0.4-0.58,0.39-1.38,0.12-2.03C600.09,247.9,599.68,247.45,598.83,247.53z"/>
<g>
	<g>
		<path class="st4" d="M1378.18,853.11c0,0,76.09,43.76,76.09,433.69l107.61-56.52c0,0,88.04-57.29,88.04,17.39
			c0,74.68-64.13,107.61-64.13,107.61s-157.94,98.58-197.82,58.69C1348.08,1374.08,1188.96,806.19,1378.18,853.11z"/>
		<path class="st5" d="M1379.64,1836.53c-2.15,0.45-4.3,0.89-6.45,1.33c-33.23,6.81-66.64,12.64-98.49,17.41
			c-45,6.72-86.82,11.34-120.31,13.64c-8.02,0.55-16.03,1.1-24.04,1.65c-0.69-2.32-1.38-4.65-2.1-7
			c-4.62-15.59-26.89-14.82-30.46,1.01c-0.63,2.76-1.25,5.55-1.87,8.36c-15.87,1.09-31.73,2.18-47.61,3.27
			c-11.37,0.76-22.74,1.58-34.12,2.34c-7.71,0.52-15.46,1.05-23.17,1.57c-44.14,3.02-88.45,6.03-132.74,7.8
			c20.67-86.27,41.28-172.54,62-258.85v-0.01c1.43-6.05,2.86-12.15,4.34-18.22c1.19-4.95,2.47-10.1,4.95-14.49
			c1.25-2.39,2.91-4.58,5.01-6.35c6.44-5.38,15.59-5.82,23.98-5.91c22.27-0.33,44.53-0.62,66.89-0.86
			c105.04-1.18,211.59-1.38,326.73,1.1c2.19,10.72,4.25,21.45,6.16,32.16c0,0.01,0,0.01,0,0.02
			C1371.44,1689.07,1378.58,1762.77,1379.64,1836.53z"/>
		<path class="st4" d="M844.25,885.63c0,0-76.09,43.76-76.09,433.69l-107.61-56.52c0,0-88.04-57.29-88.04,17.39
			c0,74.68,64.13,107.61,64.13,107.61s157.94,98.58,197.82,58.69C874.36,1406.6,1033.47,838.71,844.25,885.63z"/>
		<path class="st6" d="M710.67,1163.25c-6.23,27.21-33.11,47.25-35.33,75.07c-1.12,14.03,4.35,28.49,0.43,42.01
			c-3.26,11.26-12.5,19.76-22.21,26.32c-9.71,6.56-20.37,11.88-28.93,19.89c-13.64,12.77-22.48,32.57-40.5,37.49
			c-12.09,3.31-25.15-1.47-35.15-9.03c-10-7.56-17.68-17.68-26.06-27c-29.53-32.85-69.16-56.5-112.1-66.89
			c-5.27-1.28-10.73-2.42-15.22-5.45c-4.49-3.03-7.82-8.54-6.52-13.81c1.78-7.24,10.56-9.97,17.98-10.73
			c19.55-2.01,39.59,0.92,57.75,8.44c-20.69-14.98-42.73-28.31-66.48-37.73c-6.35-2.52-13.06-4.92-17.74-9.9s-6.41-13.51-1.78-18.53
			c4.09-4.44,11.04-4.35,17.03-3.6c38.05,4.81,72.97,22.87,106.96,40.63c-17.72-13.84-35.45-27.68-53.17-41.52
			c-13.15-10.27-26.43-20.62-41.5-27.77c-3.05-1.45-6.29-2.86-8.37-5.51c-3.62-4.62-2.34-11.78,1.64-16.1
			c3.98-4.32,9.94-6.24,15.76-7c14.26-1.86,28.78,2.33,41.43,9.16s23.72,16.2,34.69,25.5c16.51,14,33.02,28,49.53,42
			c-16.62-19.97-33.4-40.1-53.71-56.31c-14.64-11.68-26.22-18.84-39.99-31.53c-2.15-1.98-4.33-4.2-5.01-7.04
			c-1.68-7.03,6.39-12.49,13.49-13.88c25.61-5.01,45.36,9.55,64.24,27.56c21.35,20.38,40.24,43.43,63.36,61.76
			c19.61,15.55,42.09,27.48,65.95,35.02c6.1-15.88,15.08-30.65,26.38-43.37c5.17-5.82,11.6-11.57,19.38-11.83
			S711.95,1157.66,710.67,1163.25z"/>
		<path class="st1" d="M842.98,883.09c0,0,240.29-158.14,536.95-28.26c0,0,11.82,122.62-21.17,392.24
			c-12.69,103.7,20.5,242.42,16.37,368.94l-465.23,13.34c0,0-29.2-89.2,0-224.4C942.98,1251.78,861.98,1250.9,842.98,883.09z"/>
		<path class="st6" d="M1511.76,1130.73c6.23,27.21,33.11,47.25,35.33,75.07c1.12,14.03-4.35,28.49-0.43,42.01
			c3.26,11.26,12.5,19.76,22.21,26.32c9.71,6.56,20.37,11.88,28.93,19.89c13.64,12.77,22.48,32.57,40.5,37.49
			c12.09,3.31,25.15-1.47,35.15-9.03s17.68-17.68,26.06-27c29.53-32.85,69.16-56.5,112.1-66.89c5.27-1.28,10.73-2.42,15.22-5.45
			c4.49-3.03,7.82-8.54,6.52-13.81c-1.78-7.24-10.56-9.97-17.98-10.73c-19.55-2.01-39.59,0.92-57.75,8.44
			c20.69-14.98,42.73-28.31,66.48-37.73c6.35-2.52,13.06-4.92,17.74-9.9c4.67-4.98,6.41-13.51,1.78-18.53
			c-4.09-4.44-11.04-4.35-17.03-3.6c-38.05,4.81-72.97,22.87-106.96,40.63c17.72-13.84,35.45-27.68,53.17-41.52
			c13.15-10.27,26.43-20.62,41.5-27.78c3.05-1.45,6.29-2.86,8.37-5.51c3.62-4.62,2.34-11.78-1.64-16.1c-3.98-4.32-9.94-6.24-15.76-7
			c-14.26-1.86-28.78,2.33-41.43,9.16c-12.65,6.83-23.72,16.2-34.69,25.5c-16.51,14-33.02,28-49.53,42
			c16.62-19.97,33.4-40.1,53.71-56.31c14.64-11.68,26.22-18.84,39.99-31.53c2.15-1.98,4.33-4.2,5.01-7.04
			c1.68-7.03-6.39-12.49-13.49-13.88c-25.61-5.01-45.36,9.55-64.24,27.56c-21.35,20.38-40.24,43.43-63.36,61.76
			c-19.61,15.55-42.09,27.48-65.95,35.02c-6.1-15.88-15.08-30.65-26.38-43.37c-5.17-5.82-11.6-11.57-19.38-11.83
			S1510.48,1125.14,1511.76,1130.73z"/>
		<path class="st5" d="M976.13,589.13c-9.72-8.22-13.51-20.56-15.12-32.42c-1.62-11.86-1.52-24.01-5.36-35.45
			c-2.28-6.78-5.91-13.21-7.41-20.17c-2.54-11.73,1.52-24.45,10.62-33.22c14.14-13.64,36.83-16.28,55.59-24.36
			c15.97-6.88,29.29-17.88,45.04-25.16c38.34-17.72,89.66-9.15,118.2,19.72c5.58,5.64,10.36,11.95,16.61,17
			c21.14,17.08,56.19,17.75,72.88,38.37c9.59,11.85,10.52,27.45,10.28,42.05c-0.22,13.63-1.23,27.55-7.14,40.12
			c-5.87,12.46-16.24,22.87-22.52,35.17c-7.68,15.03-10.36,34.02-26.2,42.6c-4.99,2.7-10.78,3.99-16.53,4.87
			c-14.49,2.24-29.28,2.19-43.98,2.13c-18.91-0.07-38.08-0.17-56.31-4.65c-21.67-5.32-40.82-16.52-59.58-27.56
			C1022.84,615.02,996.62,606.45,976.13,589.13z"/>
		<path class="st7" d="M1044.03,690.99c-0.44,41.51,20.63,83.58,8.25,123.21c-2.03,6.51-4.97,13.35-3.01,19.89
			c0.99,3.31,3.17,6.14,5.63,8.57c15.01,14.85,38.84,15.45,59.77,12.64c13.88-1.86,27.62-4.79,41-8.92
			c5.31-1.64,10.73-3.56,14.86-7.27c7.31-6.57,9.1-17.2,9.8-27c2.59-36.27-3.74-72.66-2.14-108.99c0.57-12.86,1.86-26.8-5.19-37.57
			c-10.31-15.74-32.74-16.8-51.43-14.69c-14.74,1.66-29.39,4.23-43.81,7.69c-7.74,1.86-15.62,4.06-22.03,8.77
			C1049.3,672.02,1044.15,679.76,1044.03,690.99z"/>
		<path class="st6" d="M1240.46,583.82c-0.29,36.28-10.36,71.79-20.37,106.84c-4.51,15.81-9.08,31.75-16.95,46.35
			c-7.87,14.61-19.4,27.97-34.85,35.58c-22.48,17.05-49.31,21.51-73.87,17.41s-47.03-16.05-66.25-30.98
			c-12.1-9.4-23.22-20.18-31.08-32.94c-12.92-20.97-16.24-45.77-19.3-69.82c-3.49-27.43-6.99-54.86-8.89-81.57
			c-1.11-14.51,5.67-28.43,12.57-41.47c8.25-15.6,17.13-31.29,30.42-43.47c11.33-10.38,25.45-17.77,40.19-23.24
			c39.39-14.61,85.19-15.55,123.61,1.19c15.39,6.71,29.65,16.3,39.59,29.21c5.02,6.52,8.87,13.77,12.22,21.17
			C1237.31,539.83,1240.62,563.08,1240.46,583.82z"/>
		<path class="st3" d="M1076.65,726.74c23.27-3.86,46.7-6.75,70.21-8.66c-7.45,1.55-13.25,7.22-19.94,10.83
			c-6.75,3.64-14.43,5.16-22.05,6.07c-6.16,0.73-12.49,1.07-18.51-0.45C1080.35,733,1074.62,729.38,1076.65,726.74z"/>
		<path class="st6" d="M1224.11,606.34c7.41-9.96,18.68-17.22,31.11-20.03c5.12-1.16,11.1-1.39,15.03,1.96
			c2.1,1.79,3.29,4.36,4.17,6.92c5.33,15.57,0.44,33.9-12.04,45.11c-4.01,3.6-8.67,6.47-13.3,9.32c-4.6,2.83-9.21,5.66-13.81,8.49
			c-2.17,1.33-4.44,2.7-7,2.95c-5.13,0.5-9.67-3.82-11.03-8.58c-1.35-4.76-0.32-9.81,0.72-14.65
			C1220.26,627.13,1217.92,614.65,1224.11,606.34z"/>
		<path class="st6" d="M1011.79,597.39c-5.22-4.93-10.43-9.85-15.65-14.78c-2.16,1.81-5.46,1.46-8.1,2.55
			c-4.02,1.65-5.71,6.16-6.7,10.24c-1.78,7.37-2.65,14.93-2.59,22.49c0.03,4.34,0.4,8.77,2.17,12.77
			c2.72,6.14,8.41,10.54,13.88,14.67c5.6,4.23,11.2,8.46,16.8,12.68c1.22,0.92,2.53,1.88,4.08,2.01c4.02,0.34,5.98-4.58,6.37-8.43
			C1023.97,633.05,1025.72,610.54,1011.79,597.39z"/>
		<path class="st5" d="M968.08,583.42c5.56,13.25,12.03,26.2,19.38,38.74c-0.34-7.51-2.94-14.79-4.22-22.22
			c-3-17.36,1.23-34.99,3.41-52.67c3.49-16.06,25.05-26.8,42.23-21.04c5,1.67,9.68,4.51,15.01,4.7c3.91,0.14,7.69-1.16,11.33-2.45
			c9.96-3.52,19.93-7.04,29.89-10.56c4.5-1.59,9.09-3.2,13.91-3.59c19.62-1.6,34.87,16.58,54.45,18.47
			c16.19,1.56,33.32-8.26,48.09-2.14c10.95,4.54,15.66,16.1,17.59,26.73c1.93,10.63,2.37,21.98,8.92,31.02
			c1.62,2.23,3.62,4.34,4.31,6.92c0.71,2.62-0.04,5.36-0.78,7.98c-4.81,17.01-9.62,34.01-14.43,51.02
			c5.66-18.94,18.63-35.51,25.57-54.1c12.94-34.64,3.56-73.39-15.77-105.59c-8.61-14.35-19.77-28.3-35.9-35.93
			c-9.81-4.64-20.87-6.66-31.82-8.32c-33.84-5.11-68.89-7.11-102.23,0.13s-64.98,24.68-81.9,51.28
			c-10.05,15.8-14.52,34.05-15.54,52.19C958.97,565.49,960.23,578.27,968.08,583.42z"/>
		<path class="st1" d="M1221.79,564.27c17.62-3.68,35.85-4.45,53.72-2.26c-1.89,7.96-4.22,15.82-6.96,23.53
			c-14.54,3.04-49.14,37.76-49.14,37.76S1221.79,575.39,1221.79,564.27z"/>
		<g>
			<g>
				<path class="st8" d="M1203.94,521.17l-110.23,0.05l-110.23-0.05c-19.87-0.01-35.99,19.12-35.99,42.73v61.35
					c0,20.73,12.53,38.47,29.71,42.07l64.85,13.61c8.1,1.7,16.45,0.05,23.65-4.67l17.89-11.73c0.04-0.03,0.08-0.05,0.12-0.08
					c6.3-4.17,13.71-4.17,20.01,0c0.04,0.03,0.08,0.05,0.12,0.08l17.89,11.73c7.2,4.72,15.55,6.37,23.65,4.67l64.85-13.61
					c17.19-3.61,29.71-21.35,29.71-42.07v-61.35C1239.93,540.29,1223.82,521.16,1203.94,521.17z"/>
			</g>
			<path class="st9" d="M966.77,638.38v-92.65c0-2.7,2.19-4.88,4.88-4.88h244.11c2.7,0,4.88,2.19,4.88,4.88v92.65
				c0,2.7-2.19,4.88-4.88,4.88H971.66C968.96,643.26,966.77,641.07,966.77,638.38z"/>
		</g>
		<g>
			<path class="st10" d="M1567.73,599.74l-2.2,50.3c-0.28,6.43,3.59,12.32,9.6,14.61l47.32,18.04c13.59,5.18,12.51,24.76-1.56,28.42
				l-48.02,12.47c-6.35,1.65-10.88,7.25-11.17,13.8l-2.16,49.38c-0.63,14.43-19.34,19.65-27.35,7.64l-28.36-42.51
				c-3.53-5.29-10.03-7.77-16.18-6.17l-49.46,12.85c-13.98,3.63-24.46-12.72-15.33-23.9l31.26-38.29c4.15-5.08,4.5-12.28,0.85-17.74
				l-27.53-41.27c-8.07-12.1,4.16-27.43,17.75-22.25l47.32,18.04c6.02,2.29,12.82,0.47,16.89-4.51l31.84-39.01
				C1550.32,578.5,1568.36,585.37,1567.73,599.74z"/>
			<path class="st11" d="M1553.93,625.93l-1.6,36.57c-0.2,4.67,2.61,8.96,6.98,10.62l34.4,13.11c9.88,3.77,9.1,18-1.14,20.66
				l-34.9,9.07c-4.62,1.2-7.91,5.27-8.12,10.03l-1.57,35.9c-0.46,10.49-14.06,14.28-19.88,5.55l-20.61-30.9
				c-2.57-3.85-7.29-5.65-11.76-4.48l-35.95,9.34c-10.16,2.64-17.78-9.24-11.14-17.38l22.72-27.84c3.02-3.69,3.27-8.92,0.62-12.89
				l-20.01-30c-5.87-8.8,3.02-19.94,12.9-16.17l34.4,13.11c4.37,1.67,9.32,0.34,12.28-3.28l23.15-28.36
				C1541.27,610.49,1554.38,615.49,1553.93,625.93z"/>
		</g>
		<g>
			<path class="st9" d="M1578.13,1046.11l48.88-139.92c1.24-3.56,5.13-5.43,8.69-4.19l139.92,48.88c3.56,1.24,5.43,5.13,4.19,8.69
				l-48.88,139.92c-1.24,3.56-5.13,5.43-8.69,4.19l-139.92-48.88C1578.76,1053.56,1576.89,1049.67,1578.13,1046.11z"/>
			<path class="st12" d="M1602.41,1025.38l28.5-78.8l122.43,42.78l-28.5,78.8c-3.84,10.99-15.86,16.78-26.85,12.94l-82.65-28.87
				C1604.36,1048.39,1598.57,1036.37,1602.41,1025.38z"/>
			
				<rect x="1692.1" y="875.16" transform="matrix(0.3298 -0.944 0.944 0.3298 290.9946 2224.5967)" class="st9" width="40.46" height="64.37"/>
			
				<rect x="1717.05" y="834.46" transform="matrix(0.3298 -0.944 0.944 0.3298 350.3204 2207.459)" class="st13" width="25.75" height="45.06"/>
			<path class="st9" d="M1680.62,872.66l5.32-15.23c0.37-1.07,1.54-1.63,2.61-1.26l74.26,25.94c1.07,0.37,1.63,1.54,1.26,2.61
				l-5.32,15.23c-0.37,1.07-1.54,1.63-2.61,1.26l-74.26-25.95C1680.81,874.9,1680.24,873.73,1680.62,872.66z"/>
			<circle class="st3" cx="1654.8" cy="954.93" r="16.09"/>
			<circle class="st14" cx="1628.68" cy="1025.27" r="4.02"/>
			<circle class="st14" cx="1656.36" cy="999.25" r="4.07"/>
			<circle class="st14" cx="1709.61" cy="1045.76" r="5.45"/>
			<circle class="st14" cx="1665.73" cy="1040.75" r="7.84"/>
			<circle class="st14" cx="1723.75" cy="1000.14" r="3.84"/>
			<circle class="st14" cx="1694.23" cy="1018.76" r="2.88"/>
		</g>
		<g>
			
				<rect x="597.46" y="665.8" transform="matrix(0.953 -0.303 0.303 0.953 -180.4038 231.0385)" class="st15" width="113.59" height="62.03"/>
			<polygon class="st16" points="643.17,667.8 615.52,742.13 708.67,712.51 			"/>
			<polygon class="st16" points="590.76,684.46 615.52,742.13 557.76,760.5 			"/>
			<polygon class="st16" points="698.98,650.05 766.57,694.1 708.82,712.46 			"/>
			<polygon class="st12" points="695.19,830.69 615.52,742.13 708.67,712.51 			"/>
			<polygon class="st17" points="695.19,830.69 615.52,742.13 557.76,760.5 			"/>
			<polygon class="st18" points="695.19,830.69 766.57,694.1 708.82,712.46 			"/>
		</g>
		<path class="st19" d="M1565.5,1380.55c-0.86-3.82-2.58-7.24-5.19-10.39l-0.01-0.01c-15.26-18.5-61.31-25.89-139.79-22.69
			c-19.25,0.81-39.84,2.23-61.52,4.33h-0.03c-0.43,0-0.81,0.05-1.24,0.1c0.26,4.29,0.56,8.6,0.87,12.92
			c0.11,1.5,0.22,2.98,0.33,4.48c0.04,0.54,0.08,1.08,0.12,1.62c2.3-0.24,4.57-0.43,6.81-0.61h0.01c19.5-1.77,38-3.05,55.4-3.77
			c11.3-0.48,21.65-0.66,31.13-0.66c55.55,0,81.24,7.29,90.39,13.78c0,0,0.01,0,0.01,0.01c2.47,1.74,3.72,3.47,4.05,4.94
			c1.77,8.01-18.27,32.66-106.51,68.94c-3.86,1.58-7.82,3.2-11.83,4.77c-6.86,2.72-13.92,5.44-21.22,8.15
			c-12.15,4.54-24.84,9.07-38,13.5c-0.01,0-0.02,0.01-0.03,0.01c-35.31,11.96-74.07,23.58-115.06,34.55
			c-9.68,2.62-19.45,5.15-29.37,7.63c-24.98,6.34-50.72,12.44-76.9,18.16c-89.05,19.49-174.92,33.27-247.67,39.81h-0.01
			c-19.03,1.71-37.14,2.96-54.21,3.62c-95.36,3.86-123.86-10.16-125.58-18.12c-1.77-7.96,18.26-32.65,106.51-68.94
			c22.07-9.06,46.43-18.07,72.66-26.94c0.04-0.42,0.08-0.82,0.14-1.24c0.01-0.19,0.03-0.38,0.06-0.57c0.14-1.32,0.28-2.66,0.43-4
			c0.18-1.58,0.37-3.19,0.56-4.78c0.07-0.54,0.13-1.08,0.19-1.61c0.05-0.51,0.11-1.02,0.18-1.53c0.01-0.06,0.01-0.14,0.02-0.2
			c0.18-1.52,0.37-3.03,0.59-4.58c0.02-0.12,0.03-0.24,0.05-0.36c0-0.02,0.01-0.05,0.01-0.07c0.08-0.57,0.16-1.13,0.25-1.7
			c-0.01,0-0.01,0-0.02,0.01c-114.27,37.63-208.62,82.48-200.27,120.61c4.95,22.65,41.57,33.8,111.66,33.8
			c10.39,0,21.5-0.28,33.32-0.76c17.7-0.72,36.47-2,56.22-3.77h0.01c8.68-0.81,17.54-1.67,26.54-2.67
			c30.27-3.29,62.46-7.73,95.88-13.12c40.72-6.63,83.3-14.73,126.59-24.26c31.61-6.92,65.89-15.16,100.7-24.51
			c9.72-2.58,19.49-5.24,29.28-8.01c30.13-8.44,60.21-17.59,88.91-27.18c0.01,0,0.02-0.01,0.03-0.01
			c18.97-6.29,37.31-12.82,54.71-19.44c7.15-2.72,14.11-5.48,20.83-8.25h0.05C1520.54,1441.38,1571.74,1409.1,1565.5,1380.55z"/>
		<path class="st19" d="M1430.01,977.34H1430c0.43,2.1,0.85,4.25,1.28,6.44c0.36,1.71,0.7,3.44,1.04,5.19
			c0.03,0.14,0.06,0.28,0.08,0.43c0.01,0.05,0.02,0.11,0.03,0.17c0.08,0.39,0.16,0.78,0.24,1.17c0.08,0.43,0.16,0.85,0.23,1.28
			c0.03,0.14,0.05,0.26,0.07,0.39c0.06,0.33,0.12,0.65,0.19,0.99c0.2,1.05,0.38,2.11,0.58,3.18c0.11,0.65,0.24,1.32,0.35,1.98
			c35.81,24.27,43.82,38.62,42.1,43.48c-1.29,3.72-10.63,8.25-34.32,8.43c-15.02,0.15-35.81-1.47-64.04-6.05h-0.01
			c-2.05-0.28-4.09-0.61-6.23-1c-25.17-4.25-53.07-10.3-82.77-17.83c-0.01,0-0.01,0-0.02-0.01
			c-49.53-12.52-104.16-29.27-160.08-49.05c-89.53-31.75-171.49-67.61-230.8-100.98c-7.24-4.1-13.92-7.96-19.96-11.67
			c-0.01,0-0.01-0.01-0.02-0.01c-51.44-31.47-62.41-49.72-60.4-55.3c2.19-6.25,26.94-14.59,104.6-1.39
			c21.78,3.73,45.51,8.73,70.77,14.87h0.01c0.01,0.01,0.01,0.01,0.02,0.01c1.24-0.32,2.48-0.63,3.74-0.95
			c0.1-0.02,0.21-0.05,0.32-0.07c1.31-0.32,2.63-0.63,3.96-0.93c0.66-0.17,1.34-0.33,2.01-0.5c2.01-0.49,4.06-0.95,6.14-1.41
			c2.2-0.5,4.41-0.97,6.65-1.45c0.24-0.04,0.49-0.09,0.73-0.16c0.32-0.06,0.64-0.14,0.97-0.21c2.81-0.61,5.63-1.18,8.48-1.71
			c-108.37-28.84-211.54-44.43-223.27-11.34c-6.53,18.35,18.31,42.81,59.22,68.79c0,0,0.01,0,0.01,0.01
			c7.54,4.76,15.58,9.63,24.11,14.44h0.05c0.07,0.04,0.14,0.08,0.21,0.11c0.01,0,0.01,0.01,0.02,0.01c3.86,2.22,7.8,4.43,11.85,6.65
			c0,0,0.01,0,0.01,0.01c0.06,0.02,0.1,0.05,0.17,0.08c65.84,35.95,153.75,72.37,225.23,97.69c50.1,17.78,109.82,36.37,166.5,50.52
			c0.01,0.01,0.02,0.01,0.03,0.01c30.47,7.67,60.07,14.06,86.77,18.31h0.01c25.45,4.14,48.34,6.35,66.84,5.91h0.01
			c25.64-0.57,42.94-6.1,47.38-18.55C1497.7,1028.68,1472,1003.75,1430.01,977.34z"/>
		<path class="st19" d="M1446.55,1471.56h-0.05c-5.82-4.43-11.83-8.83-17.98-13.26c-20.45-14.78-42.62-29.8-65.65-44.57
			c0.76,7.97,1.53,15.97,2.34,24.03c14.73,9.68,28.84,19.25,42.09,28.69c6.29,4.49,12.45,8.92,18.36,13.36
			c4.62,3.39,9.15,6.77,13.54,10.16c75.71,58.12,88.53,87.25,84.76,94.54c-3.77,7.25-35,13.5-126.06-15.06
			c-7.49-2.34-15.15-4.87-23.01-7.54h-0.01c-28.85-9.81-60.08-21.74-92.88-35.47c-9.16-3.86-18.4-7.82-27.8-11.92
			c-43.82-19.21-89.92-41.29-136.55-65.51c-74.03-38.51-142.86-78.98-200.01-117.46c-0.01,0-0.03-0.01-0.04-0.02
			c-10.68-7.2-20.98-14.3-30.8-21.31c0,0-0.01,0-0.01-0.01c-10.05-7.19-19.63-14.29-28.74-21.25
			c-75.71-58.12-88.59-87.25-84.77-94.55c3.68-7.05,33.09-13.11,117.76,12.49h0.01c-0.48-1.71-0.96-3.45-1.44-5.21
			c-0.48-1.76-0.96-3.54-1.44-5.34c-0.97-3.6-1.93-7.3-2.89-11.09h-0.05c-49.62-14.26-90.42-20.22-112.88-12.31h-0.01
			c-7.49,2.63-12.92,6.77-15.97,12.68c-6.29,12.12-0.86,28.19,13.16,46.78c0,0.01,0.01,0.01,0.02,0.02
			c21.22,28.26,62.15,62.34,111.66,97.09c0.01,0,0.01,0.01,0.02,0.01c11.59,8.19,23.65,16.4,36.05,24.55
			c61.69,40.67,131.45,80.67,191.57,111.9c35.42,18.4,75.18,37.8,115.99,56.16c9.25,4.14,18.55,8.29,27.89,12.3
			c41.9,18.22,84.01,34.8,122.67,47.77h0.01c83.58,28.03,151.03,38.9,165.48,11.06C1554.68,1566.77,1512,1521.05,1446.55,1471.56z"
			/>
		<path class="st3" d="M1029.57,560.8c-6.31,1.09-12.19,4.54-16.22,9.52c-4.03,4.98-6.18,11.45-5.93,17.85
			c0.09,2.36,0.92,5.2,3.22,5.74c1.98,0.47,3.89-1.12,4.86-2.91c0.97-1.79,1.37-3.85,2.48-5.56c4.11-6.36,14.98-4.45,19.6-10.44
			c1.85-2.39,2.25-5.82,1.01-8.57C1037.33,563.68,1034.5,561.72,1029.57,560.8z"/>
		<path class="st3" d="M981.1,594.21c-1.95,2.29-3.94,4.67-4.79,7.56c-0.85,2.88-0.25,6.42,2.22,8.14c2.77,1.93,6.94,0.7,8.86-2.08
			c1.91-2.77,1.85-6.56,0.59-9.69C987.11,596.02,985.13,593.84,981.1,594.21z"/>
	</g>
	<path class="st20" d="M1749.28,1682.05c-104.14,91.05-238.54,127.31-369.63,154.48c-2.15,0.45-4.3,0.89-6.45,1.33
		c-33.23,6.81-66.64,12.64-98.49,17.41c-45,6.72-86.82,11.34-120.31,13.64c-8.02,0.55-16.03,1.1-24.04,1.65
		c-11.48,0.79-22.95,1.58-34.43,2.37c-15.87,1.09-31.73,2.18-47.61,3.27c-11.37,0.76-22.74,1.58-34.12,2.34
		c-7.71,0.52-15.46,1.05-23.17,1.57c-44.14,3.02-88.45,6.03-132.74,7.8c-20.15,0.8-40.28,1.34-60.41,1.51
		c-72.19,0.61-144.16-3.68-215.07-18.22c-134.14-27.56-266.35-96.21-347.98-215.93c-81.64-119.71-101.33-295.65-24.39-419.03
		c41.03-65.74,106.02-114.52,147.37-177.93c2.66-4.09,5.23-8.25,7.72-12.48c0.15-0.25,0.28-0.49,0.43-0.74
		c2.75-4.76,5.35-9.6,7.79-14.55c6.23-12.57,11.41-25.78,15.27-39.88c5.44-19.84,7.79-39.67,7.92-59.64v-0.05
		c0.14-10.05-0.32-20.06-1.28-30.15c-0.29-3.02-0.61-6.05-0.99-9.09c-0.19-1.63-0.39-3.27-0.61-4.9
		c-11.8-90.39-35.96-258.89-35.06-352.26c0.91-92.4,47.52-179.51,112-239.19c64.47-59.65,145.28-94.6,227.22-116.91
		c63.9-17.41,131.12-27.75,195.46-12.49c108.08,25.6,195.6,119.86,304.72,139.51c99.01,17.83,198.43-28.75,298.79-28.08
		c125.72,0.85,246.57,80.48,313.87,196.76c67.25,116.24,62.24,341.53,28.7,474.12c-11.04,43.66-27.15,87.71-33.12,131.97
		c-1.52,11.24-2.38,22.48-2.35,33.74c0.03,9.05,0.64,18.09,1.97,27.15c0.32,2.17,0.68,4.35,1.08,6.53
		c1.65,8.87,3.97,17.48,6.78,25.9c3.11,9.31,6.8,18.38,10.85,27.32c2.39,5.3,4.9,10.55,7.49,15.78
		c11.8,23.87,25.03,47.23,34.7,72.12C1920.12,1425.21,1855.09,1589.56,1749.28,1682.05z"/>
	<g>
		<path class="st4" d="M1378.18,853.11c0,0,76.09,43.76,76.09,433.69l107.61-56.52c0,0,88.04-57.29,88.04,17.39
			c0,74.68-64.13,107.61-64.13,107.61s-157.94,98.58-197.82,58.69C1348.08,1374.08,1188.96,806.19,1378.18,853.11z"/>
		<path class="st21" d="M1379.64,1836.53c-2.15,0.45-4.3,0.89-6.45,1.33c-33.23,6.81-66.64,12.64-98.49,17.41
			c-45,6.72-86.82,11.34-120.31,13.64c-8.02,0.55-16.03,1.1-24.04,1.65c-0.69-2.32-1.38-4.65-2.1-7
			c-4.62-15.59-26.89-14.82-30.46,1.01c-0.63,2.76-1.25,5.55-1.87,8.36c-15.87,1.09-31.73,2.18-47.61,3.27
			c-11.37,0.76-22.74,1.58-34.12,2.34c-7.71,0.52-15.46,1.05-23.17,1.57c-44.14,3.02-88.45,6.03-132.74,7.8
			c20.67-86.27,41.28-172.54,62-258.85v-0.01c1.43-6.05,2.86-12.15,4.34-18.22c1.19-4.95,2.47-10.1,4.95-14.49
			c1.25-2.39,2.91-4.58,5.01-6.35c6.44-5.38,15.59-5.82,23.98-5.91c22.27-0.33,44.53-0.62,66.89-0.86
			c105.04-1.18,211.59-1.38,326.73,1.1c2.19,10.72,4.25,21.45,6.16,32.16c0,0.01,0,0.01,0,0.02
			C1371.44,1689.07,1378.58,1762.77,1379.64,1836.53z"/>
		<path class="st4" d="M844.25,885.63c0,0-76.09,43.76-76.09,433.69l-107.61-56.52c0,0-88.04-57.29-88.04,17.39
			c0,74.68,64.13,107.61,64.13,107.61s157.94,98.58,197.82,58.69C874.36,1406.6,1033.47,838.71,844.25,885.63z"/>
		<path class="st6" d="M710.67,1163.25c-6.23,27.21-33.11,47.25-35.33,75.07c-1.12,14.03,4.35,28.49,0.43,42.01
			c-3.26,11.26-12.5,19.76-22.21,26.32c-9.71,6.56-20.37,11.88-28.93,19.89c-13.64,12.77-22.48,32.57-40.5,37.49
			c-12.09,3.31-25.15-1.47-35.15-9.03c-10-7.56-17.68-17.68-26.06-27c-29.53-32.85-69.16-56.5-112.1-66.89
			c-5.27-1.28-10.73-2.42-15.22-5.45c-4.49-3.03-7.82-8.54-6.52-13.81c1.78-7.24,10.56-9.97,17.98-10.73
			c19.55-2.01,39.59,0.92,57.75,8.44c-20.69-14.98-42.73-28.31-66.48-37.73c-6.35-2.52-13.06-4.92-17.74-9.9s-6.41-13.51-1.78-18.53
			c4.09-4.44,11.04-4.35,17.03-3.6c38.05,4.81,72.97,22.87,106.96,40.63c-17.72-13.84-35.45-27.68-53.17-41.52
			c-13.15-10.27-26.43-20.62-41.5-27.77c-3.05-1.45-6.29-2.86-8.37-5.51c-3.62-4.62-2.34-11.78,1.64-16.1
			c3.98-4.32,9.94-6.24,15.76-7c14.26-1.86,28.78,2.33,41.43,9.16s23.72,16.2,34.69,25.5c16.51,14,33.02,28,49.53,42
			c-16.62-19.97-33.4-40.1-53.71-56.31c-14.64-11.68-26.22-18.84-39.99-31.53c-2.15-1.98-4.33-4.2-5.01-7.04
			c-1.68-7.03,6.39-12.49,13.49-13.88c25.61-5.01,45.36,9.55,64.24,27.56c21.35,20.38,40.24,43.43,63.36,61.76
			c19.61,15.55,42.09,27.48,65.95,35.02c6.1-15.88,15.08-30.65,26.38-43.37c5.17-5.82,11.6-11.57,19.38-11.83
			S711.95,1157.66,710.67,1163.25z"/>
		<path class="st1" d="M842.98,883.09c0,0,240.29-158.14,536.95-28.26c0,0,11.82,122.62-21.17,392.24
			c-12.69,103.7,20.5,242.42,16.37,368.94l-465.23,13.34c0,0-29.2-89.2,0-224.4C942.98,1251.78,861.98,1250.9,842.98,883.09z"/>
		<path class="st6" d="M1511.76,1130.73c6.23,27.21,33.11,47.25,35.33,75.07c1.12,14.03-4.35,28.49-0.43,42.01
			c3.26,11.26,12.5,19.76,22.21,26.32c9.71,6.56,20.37,11.88,28.93,19.89c13.64,12.77,22.48,32.57,40.5,37.49
			c12.09,3.31,25.15-1.47,35.15-9.03s17.68-17.68,26.06-27c29.53-32.85,69.16-56.5,112.1-66.89c5.27-1.28,10.73-2.42,15.22-5.45
			c4.49-3.03,7.82-8.54,6.52-13.81c-1.78-7.24-10.56-9.97-17.98-10.73c-19.55-2.01-39.59,0.92-57.75,8.44
			c20.69-14.98,42.73-28.31,66.48-37.73c6.35-2.52,13.06-4.92,17.74-9.9c4.67-4.98,6.41-13.51,1.78-18.53
			c-4.09-4.44-11.04-4.35-17.03-3.6c-38.05,4.81-72.97,22.87-106.96,40.63c17.72-13.84,35.45-27.68,53.17-41.52
			c13.15-10.27,26.43-20.62,41.5-27.78c3.05-1.45,6.29-2.86,8.37-5.51c3.62-4.62,2.34-11.78-1.64-16.1c-3.98-4.32-9.94-6.24-15.76-7
			c-14.26-1.86-28.78,2.33-41.43,9.16c-12.65,6.83-23.72,16.2-34.69,25.5c-16.51,14-33.02,28-49.53,42
			c16.62-19.97,33.4-40.1,53.71-56.31c14.64-11.68,26.22-18.84,39.99-31.53c2.15-1.98,4.33-4.2,5.01-7.04
			c1.68-7.03-6.39-12.49-13.49-13.88c-25.61-5.01-45.36,9.55-64.24,27.56c-21.35,20.38-40.24,43.43-63.36,61.76
			c-19.61,15.55-42.09,27.48-65.95,35.02c-6.1-15.88-15.08-30.65-26.38-43.37c-5.17-5.82-11.6-11.57-19.38-11.83
			S1510.48,1125.14,1511.76,1130.73z"/>
		<path class="st21" d="M976.13,589.13c-9.72-8.22-13.51-20.56-15.12-32.42c-1.62-11.86-1.52-24.01-5.36-35.45
			c-2.28-6.78-5.91-13.21-7.41-20.17c-2.54-11.73,1.52-24.45,10.62-33.22c14.14-13.64,36.83-16.28,55.59-24.36
			c15.97-6.88,29.29-17.88,45.04-25.16c38.34-17.72,89.66-9.15,118.2,19.72c5.58,5.64,10.36,11.95,16.61,17
			c21.14,17.08,56.19,17.75,72.88,38.37c9.59,11.85,10.52,27.45,10.28,42.05c-0.22,13.63-1.23,27.55-7.14,40.12
			c-5.87,12.46-16.24,22.87-22.52,35.17c-7.68,15.03-10.36,34.02-26.2,42.6c-4.99,2.7-10.78,3.99-16.53,4.87
			c-14.49,2.24-29.28,2.19-43.98,2.13c-18.91-0.07-38.08-0.17-56.31-4.65c-21.67-5.32-40.82-16.52-59.58-27.56
			C1022.84,615.02,996.62,606.45,976.13,589.13z"/>
		<path class="st7" d="M1044.03,690.99c-0.44,41.51,20.63,83.58,8.25,123.21c-2.03,6.51-4.97,13.35-3.01,19.89
			c0.99,3.31,3.17,6.14,5.63,8.57c15.01,14.85,38.84,15.45,59.77,12.64c13.88-1.86,27.62-4.79,41-8.92
			c5.31-1.64,10.73-3.56,14.86-7.27c7.31-6.57,9.1-17.2,9.8-27c2.59-36.27-3.74-72.66-2.14-108.99c0.57-12.86,1.86-26.8-5.19-37.57
			c-10.31-15.74-32.74-16.8-51.43-14.69c-14.74,1.66-29.39,4.23-43.81,7.69c-7.74,1.86-15.62,4.06-22.03,8.77
			C1049.3,672.02,1044.15,679.76,1044.03,690.99z"/>
		<path class="st6" d="M1240.46,583.82c-0.29,36.28-10.36,71.79-20.37,106.84c-4.51,15.81-9.08,31.75-16.95,46.35
			c-7.87,14.61-19.4,27.97-34.85,35.58c-22.48,17.05-49.31,21.51-73.87,17.41s-47.03-16.05-66.25-30.98
			c-12.1-9.4-23.22-20.18-31.08-32.94c-12.92-20.97-16.24-45.77-19.3-69.82c-3.49-27.43-6.99-54.86-8.89-81.57
			c-1.11-14.51,5.67-28.43,12.57-41.47c8.25-15.6,17.13-31.29,30.42-43.47c11.33-10.38,25.45-17.77,40.19-23.24
			c39.39-14.61,85.19-15.55,123.61,1.19c15.39,6.71,29.65,16.3,39.59,29.21c5.02,6.52,8.87,13.77,12.22,21.17
			C1237.31,539.83,1240.62,563.08,1240.46,583.82z"/>
		<path class="st3" d="M1076.65,726.74c23.27-3.86,46.7-6.75,70.21-8.66c-7.45,1.55-13.25,7.22-19.94,10.83
			c-6.75,3.64-14.43,5.16-22.05,6.07c-6.16,0.73-12.49,1.07-18.51-0.45C1080.35,733,1074.62,729.38,1076.65,726.74z"/>
		<path class="st6" d="M1224.11,606.34c7.41-9.96,18.68-17.22,31.11-20.03c5.12-1.16,11.1-1.39,15.03,1.96
			c2.1,1.79,3.29,4.36,4.17,6.92c5.33,15.57,0.44,33.9-12.04,45.11c-4.01,3.6-8.67,6.47-13.3,9.32c-4.6,2.83-9.21,5.66-13.81,8.49
			c-2.17,1.33-4.44,2.7-7,2.95c-5.13,0.5-9.67-3.82-11.03-8.58c-1.35-4.76-0.32-9.81,0.72-14.65
			C1220.26,627.13,1217.92,614.65,1224.11,606.34z"/>
		<path class="st6" d="M1011.79,597.39c-5.22-4.93-10.43-9.85-15.65-14.78c-2.16,1.81-5.46,1.46-8.1,2.55
			c-4.02,1.65-5.71,6.16-6.7,10.24c-1.78,7.37-2.65,14.93-2.59,22.49c0.03,4.34,0.4,8.77,2.17,12.77
			c2.72,6.14,8.41,10.54,13.88,14.67c5.6,4.23,11.2,8.46,16.8,12.68c1.22,0.92,2.53,1.88,4.08,2.01c4.02,0.34,5.98-4.58,6.37-8.43
			C1023.97,633.05,1025.72,610.54,1011.79,597.39z"/>
		<path class="st21" d="M968.08,583.42c5.56,13.25,12.03,26.2,19.38,38.74c-0.34-7.51-2.94-14.79-4.22-22.22
			c-3-17.36,1.23-34.99,3.41-52.67c3.49-16.06,25.05-26.8,42.23-21.04c5,1.67,9.68,4.51,15.01,4.7c3.91,0.14,7.69-1.16,11.33-2.45
			c9.96-3.52,19.93-7.04,29.89-10.56c4.5-1.59,9.09-3.2,13.91-3.59c19.62-1.6,34.87,16.58,54.45,18.47
			c16.19,1.56,33.32-8.26,48.09-2.14c10.95,4.54,15.66,16.1,17.59,26.73c1.93,10.63,2.37,21.98,8.92,31.02
			c1.62,2.23,3.62,4.34,4.31,6.92c0.71,2.62-0.04,5.36-0.78,7.98c-4.81,17.01-9.62,34.01-14.43,51.02
			c5.66-18.94,18.63-35.51,25.57-54.1c12.94-34.64,3.56-73.39-15.77-105.59c-8.61-14.35-19.77-28.3-35.9-35.93
			c-9.81-4.64-20.87-6.66-31.82-8.32c-33.84-5.11-68.89-7.11-102.23,0.13s-64.98,24.68-81.9,51.28
			c-10.05,15.8-14.52,34.05-15.54,52.19C958.97,565.49,960.23,578.27,968.08,583.42z"/>
		<path class="st1" d="M1221.79,564.27c17.62-3.68,35.85-4.45,53.72-2.26c-1.89,7.96-4.22,15.82-6.96,23.53
			c-14.54,3.04-49.14,37.76-49.14,37.76S1221.79,575.39,1221.79,564.27z"/>
		<g>
			<g>
				<path class="st8" d="M1203.94,521.17l-110.23,0.05l-110.23-0.05c-19.87-0.01-35.99,19.12-35.99,42.73v61.35
					c0,20.73,12.53,38.47,29.71,42.07l64.85,13.61c8.1,1.7,16.45,0.05,23.65-4.67l17.89-11.73c0.04-0.03,0.08-0.05,0.12-0.08
					c6.3-4.17,13.71-4.17,20.01,0c0.04,0.03,0.08,0.05,0.12,0.08l17.89,11.73c7.2,4.72,15.55,6.37,23.65,4.67l64.85-13.61
					c17.19-3.61,29.71-21.35,29.71-42.07v-61.35C1239.93,540.29,1223.82,521.16,1203.94,521.17z"/>
			</g>
			<path class="st9" d="M966.77,638.38v-92.65c0-2.7,2.19-4.88,4.88-4.88h244.11c2.7,0,4.88,2.19,4.88,4.88v92.65
				c0,2.7-2.19,4.88-4.88,4.88H971.66C968.96,643.26,966.77,641.07,966.77,638.38z"/>
		</g>
		<g>
			<polygon class="st22" points="505.87,1078.72 422.47,931.13 479.91,862.91 566.11,895.62 574.69,1061.71 			"/>
			<polygon class="st23" points="520.15,1078.64 443.9,929.64 486.55,882.04 547.72,902.11 566.06,1067.29 			"/>
			
				<rect x="532.58" y="1090.4" transform="matrix(0.9708 -0.24 0.24 0.9708 -253.9854 166.396)" class="st24" width="47.29" height="71.32"/>
			<path class="st25" d="M468.61,1117.74l-5.85-23.67c-0.6-2.44,0.89-4.91,3.33-5.51l151.01-37.33c2.44-0.6,4.91,0.89,5.51,3.33
				l5.85,23.67L468.61,1117.74z"/>
			<path class="st25" d="M531.03,1166.46l3.66,14.79c0.19,0.76,0.96,1.23,1.72,1.04l63.56-15.71c0.76-0.19,1.23-0.96,1.04-1.72
				l-3.66-14.79c-0.19-0.76-0.96-1.23-1.72-1.04l-63.56,15.71C531.31,1164.93,530.84,1165.7,531.03,1166.46z"/>
		</g>
		<g>
			<path class="st10" d="M1567.73,599.74l-2.2,50.3c-0.28,6.43,3.59,12.32,9.6,14.61l47.32,18.04c13.59,5.18,12.51,24.76-1.56,28.42
				l-48.02,12.47c-6.35,1.65-10.88,7.25-11.17,13.8l-2.16,49.38c-0.63,14.43-19.34,19.65-27.35,7.64l-28.36-42.51
				c-3.53-5.29-10.03-7.77-16.18-6.17l-49.46,12.85c-13.98,3.63-24.46-12.72-15.33-23.9l31.26-38.29c4.15-5.08,4.5-12.28,0.85-17.74
				l-27.53-41.27c-8.07-12.1,4.16-27.43,17.75-22.25l47.32,18.04c6.02,2.29,12.82,0.47,16.89-4.51l31.84-39.01
				C1550.32,578.5,1568.36,585.37,1567.73,599.74z"/>
			<path class="st11" d="M1553.93,625.93l-1.6,36.57c-0.2,4.67,2.61,8.96,6.98,10.62l34.4,13.11c9.88,3.77,9.1,18-1.14,20.66
				l-34.9,9.07c-4.62,1.2-7.91,5.27-8.12,10.03l-1.57,35.9c-0.46,10.49-14.06,14.28-19.88,5.55l-20.61-30.9
				c-2.57-3.85-7.29-5.65-11.76-4.48l-35.95,9.34c-10.16,2.64-17.78-9.24-11.14-17.38l22.72-27.84c3.02-3.69,3.27-8.92,0.62-12.89
				l-20.01-30c-5.87-8.8,3.02-19.94,12.9-16.17l34.4,13.11c4.37,1.67,9.32,0.34,12.28-3.28l23.15-28.36
				C1541.27,610.49,1554.38,615.49,1553.93,625.93z"/>
		</g>
		<g>
			<path class="st9" d="M1578.13,1046.11l48.88-139.92c1.24-3.56,5.13-5.43,8.69-4.19l139.92,48.88c3.56,1.24,5.43,5.13,4.19,8.69
				l-48.88,139.92c-1.24,3.56-5.13,5.43-8.69,4.19l-139.92-48.88C1578.76,1053.56,1576.89,1049.67,1578.13,1046.11z"/>
			<path class="st12" d="M1602.41,1025.38l28.5-78.8l122.43,42.78l-28.5,78.8c-3.84,10.99-15.86,16.78-26.85,12.94l-82.65-28.87
				C1604.36,1048.39,1598.57,1036.37,1602.41,1025.38z"/>
			
				<rect x="1692.1" y="875.16" transform="matrix(0.3298 -0.944 0.944 0.3298 290.9946 2224.5967)" class="st9" width="40.46" height="64.37"/>
			
				<rect x="1717.05" y="834.46" transform="matrix(0.3298 -0.944 0.944 0.3298 350.3204 2207.459)" class="st13" width="25.75" height="45.06"/>
			<path class="st9" d="M1680.62,872.66l5.32-15.23c0.37-1.07,1.54-1.63,2.61-1.26l74.26,25.94c1.07,0.37,1.63,1.54,1.26,2.61
				l-5.32,15.23c-0.37,1.07-1.54,1.63-2.61,1.26l-74.26-25.95C1680.81,874.9,1680.24,873.73,1680.62,872.66z"/>
			<circle class="st3" cx="1654.8" cy="954.93" r="16.09"/>
			<circle class="st14" cx="1628.68" cy="1025.27" r="4.02"/>
			<circle class="st14" cx="1656.36" cy="999.25" r="4.07"/>
			<circle class="st14" cx="1709.61" cy="1045.76" r="5.45"/>
			<circle class="st14" cx="1665.73" cy="1040.75" r="7.84"/>
			<circle class="st14" cx="1723.75" cy="1000.14" r="3.84"/>
			<circle class="st14" cx="1694.23" cy="1018.76" r="2.88"/>
		</g>
		<g>
			
				<rect x="597.46" y="665.8" transform="matrix(0.953 -0.303 0.303 0.953 -180.4038 231.0385)" class="st15" width="113.59" height="62.03"/>
			<polygon class="st16" points="643.17,667.8 615.52,742.13 708.67,712.51 			"/>
			<polygon class="st16" points="590.76,684.46 615.52,742.13 557.76,760.5 			"/>
			<polygon class="st16" points="698.98,650.05 766.57,694.1 708.82,712.46 			"/>
			<polygon class="st12" points="695.19,830.69 615.52,742.13 708.67,712.51 			"/>
			<polygon class="st17" points="695.19,830.69 615.52,742.13 557.76,760.5 			"/>
			<polygon class="st18" points="695.19,830.69 766.57,694.1 708.82,712.46 			"/>
		</g>
		<path class="st19" d="M1565.5,1380.55c-0.86-3.82-2.58-7.24-5.19-10.39l-0.01-0.01c-15.26-18.5-61.31-25.89-139.79-22.69
			c-19.25,0.81-39.84,2.23-61.52,4.33h-0.03c-0.43,0-0.81,0.05-1.24,0.1c0.26,4.29,0.56,8.6,0.87,12.92
			c0.11,1.5,0.22,2.98,0.33,4.48c0.04,0.54,0.08,1.08,0.12,1.62c2.3-0.24,4.57-0.43,6.81-0.61h0.01c19.5-1.77,38-3.05,55.4-3.77
			c11.3-0.48,21.65-0.66,31.13-0.66c55.55,0,81.24,7.29,90.39,13.78c0,0,0.01,0,0.01,0.01c2.47,1.74,3.72,3.47,4.05,4.94
			c1.77,8.01-18.27,32.66-106.51,68.94c-3.86,1.58-7.82,3.2-11.83,4.77c-6.86,2.72-13.92,5.44-21.22,8.15
			c-12.15,4.54-24.84,9.07-38,13.5c-0.01,0-0.02,0.01-0.03,0.01c-35.31,11.96-74.07,23.58-115.06,34.55
			c-9.68,2.62-19.45,5.15-29.37,7.63c-24.98,6.34-50.72,12.44-76.9,18.16c-89.05,19.49-174.92,33.27-247.67,39.81h-0.01
			c-19.03,1.71-37.14,2.96-54.21,3.62c-95.36,3.86-123.86-10.16-125.58-18.12c-1.77-7.96,18.26-32.65,106.51-68.94
			c22.07-9.06,46.43-18.07,72.66-26.94c0.04-0.42,0.08-0.82,0.14-1.24c0.01-0.19,0.03-0.38,0.06-0.57c0.14-1.32,0.28-2.66,0.43-4
			c0.18-1.58,0.37-3.19,0.56-4.78c0.07-0.54,0.13-1.08,0.19-1.61c0.05-0.51,0.11-1.02,0.18-1.53c0.01-0.06,0.01-0.14,0.02-0.2
			c0.18-1.52,0.37-3.03,0.59-4.58c0.02-0.12,0.03-0.24,0.05-0.36c0-0.02,0.01-0.05,0.01-0.07c0.08-0.57,0.16-1.13,0.25-1.7
			c-0.01,0-0.01,0-0.02,0.01c-114.27,37.63-208.62,82.48-200.27,120.61c4.95,22.65,41.57,33.8,111.66,33.8
			c10.39,0,21.5-0.28,33.32-0.76c17.7-0.72,36.47-2,56.22-3.77h0.01c8.68-0.81,17.54-1.67,26.54-2.67
			c30.27-3.29,62.46-7.73,95.88-13.12c40.72-6.63,83.3-14.73,126.59-24.26c31.61-6.92,65.89-15.16,100.7-24.51
			c9.72-2.58,19.49-5.24,29.28-8.01c30.13-8.44,60.21-17.59,88.91-27.18c0.01,0,0.02-0.01,0.03-0.01
			c18.97-6.29,37.31-12.82,54.71-19.44c7.15-2.72,14.11-5.48,20.83-8.25h0.05C1520.54,1441.38,1571.74,1409.1,1565.5,1380.55z"/>
		<path class="st19" d="M1430.01,977.34H1430c0.43,2.1,0.85,4.25,1.28,6.44c0.36,1.71,0.7,3.44,1.04,5.19
			c0.03,0.14,0.06,0.28,0.08,0.43c0.01,0.05,0.02,0.11,0.03,0.17c0.08,0.39,0.16,0.78,0.24,1.17c0.08,0.43,0.16,0.85,0.23,1.28
			c0.03,0.14,0.05,0.26,0.07,0.39c0.06,0.33,0.12,0.65,0.19,0.99c0.2,1.05,0.38,2.11,0.58,3.18c0.11,0.65,0.24,1.32,0.35,1.98
			c35.81,24.27,43.82,38.62,42.1,43.48c-1.29,3.72-10.63,8.25-34.32,8.43c-15.02,0.15-35.81-1.47-64.04-6.05h-0.01
			c-2.05-0.28-4.09-0.61-6.23-1c-25.17-4.25-53.07-10.3-82.77-17.83c-0.01,0-0.01,0-0.02-0.01
			c-49.53-12.52-104.16-29.27-160.08-49.05c-89.53-31.75-171.49-67.61-230.8-100.98c-7.24-4.1-13.92-7.96-19.96-11.67
			c-0.01,0-0.01-0.01-0.02-0.01c-51.44-31.47-62.41-49.72-60.4-55.3c2.19-6.25,26.94-14.59,104.6-1.39
			c21.78,3.73,45.51,8.73,70.77,14.87h0.01c0.01,0.01,0.01,0.01,0.02,0.01c1.24-0.32,2.48-0.63,3.74-0.95
			c0.1-0.02,0.21-0.05,0.32-0.07c1.31-0.32,2.63-0.63,3.96-0.93c0.66-0.17,1.34-0.33,2.01-0.5c2.01-0.49,4.06-0.95,6.14-1.41
			c2.2-0.5,4.41-0.97,6.65-1.45c0.24-0.04,0.49-0.09,0.73-0.16c0.32-0.06,0.64-0.14,0.97-0.21c2.81-0.61,5.63-1.18,8.48-1.71
			c-108.37-28.84-211.54-44.43-223.27-11.34c-6.53,18.35,18.31,42.81,59.22,68.79c0,0,0.01,0,0.01,0.01
			c7.54,4.76,15.58,9.63,24.11,14.44h0.05c0.07,0.04,0.14,0.08,0.21,0.11c0.01,0,0.01,0.01,0.02,0.01c3.86,2.22,7.8,4.43,11.85,6.65
			c0,0,0.01,0,0.01,0.01c0.06,0.02,0.1,0.05,0.17,0.08c65.84,35.95,153.75,72.37,225.23,97.69c50.1,17.78,109.82,36.37,166.5,50.52
			c0.01,0.01,0.02,0.01,0.03,0.01c30.47,7.67,60.07,14.06,86.77,18.31h0.01c25.45,4.14,48.34,6.35,66.84,5.91h0.01
			c25.64-0.57,42.94-6.1,47.38-18.55C1497.7,1028.68,1472,1003.75,1430.01,977.34z"/>
		<path class="st19" d="M1446.55,1471.56h-0.05c-5.82-4.43-11.83-8.83-17.98-13.26c-20.45-14.78-42.62-29.8-65.65-44.57
			c0.76,7.97,1.53,15.97,2.34,24.03c14.73,9.68,28.84,19.25,42.09,28.69c6.29,4.49,12.45,8.92,18.36,13.36
			c4.62,3.39,9.15,6.77,13.54,10.16c75.71,58.12,88.53,87.25,84.76,94.54c-3.77,7.25-35,13.5-126.06-15.06
			c-7.49-2.34-15.15-4.87-23.01-7.54h-0.01c-28.85-9.81-60.08-21.74-92.88-35.47c-9.16-3.86-18.4-7.82-27.8-11.92
			c-43.82-19.21-89.92-41.29-136.55-65.51c-74.03-38.51-142.86-78.98-200.01-117.46c-0.01,0-0.03-0.01-0.04-0.02
			c-10.68-7.2-20.98-14.3-30.8-21.31c0,0-0.01,0-0.01-0.01c-10.05-7.19-19.63-14.29-28.74-21.25
			c-75.71-58.12-88.59-87.25-84.77-94.55c3.68-7.05,33.09-13.11,117.76,12.49h0.01c-0.48-1.71-0.96-3.45-1.44-5.21
			c-0.48-1.76-0.96-3.54-1.44-5.34c-0.97-3.6-1.93-7.3-2.89-11.09h-0.05c-49.62-14.26-90.42-20.22-112.88-12.31h-0.01
			c-7.49,2.63-12.92,6.77-15.97,12.68c-6.29,12.12-0.86,28.19,13.16,46.78c0,0.01,0.01,0.01,0.02,0.02
			c21.22,28.26,62.15,62.34,111.66,97.09c0.01,0,0.01,0.01,0.02,0.01c11.59,8.19,23.65,16.4,36.05,24.55
			c61.69,40.67,131.45,80.67,191.57,111.9c35.42,18.4,75.18,37.8,115.99,56.16c9.25,4.14,18.55,8.29,27.89,12.3
			c41.9,18.22,84.01,34.8,122.67,47.77h0.01c83.58,28.03,151.03,38.9,165.48,11.06C1554.68,1566.77,1512,1521.05,1446.55,1471.56z"
			/>
		<path class="st3" d="M1029.57,560.8c-6.31,1.09-12.19,4.54-16.22,9.52c-4.03,4.98-6.18,11.45-5.93,17.85
			c0.09,2.36,0.92,5.2,3.22,5.74c1.98,0.47,3.89-1.12,4.86-2.91c0.97-1.79,1.37-3.85,2.48-5.56c4.11-6.36,14.98-4.45,19.6-10.44
			c1.85-2.39,2.25-5.82,1.01-8.57C1037.33,563.68,1034.5,561.72,1029.57,560.8z"/>
		<path class="st3" d="M981.1,594.21c-1.95,2.29-3.94,4.67-4.79,7.56c-0.85,2.88-0.25,6.42,2.22,8.14c2.77,1.93,6.94,0.7,8.86-2.08
			c1.91-2.77,1.85-6.56,0.59-9.69C987.11,596.02,985.13,593.84,981.1,594.21z"/>
	</g>
	<circle class="st26" cx="754.99" cy="474.14" r="32.76"/>
	<circle class="st26" cx="1660.99" cy="539.65" r="18.25"/>
	<circle class="st26" cx="1689.66" cy="1506.84" r="20.55"/>
	<circle class="st26" cx="708.06" cy="1718.5" r="15.02"/>
	<circle class="st26" cx="460.14" cy="1532.56" r="50.23"/>
</g>
</svg>
