<svg xmlns="http://www.w3.org/2000/svg" width="128" height="128" viewBox="0 0 128 128">
  <title>GAMER</title>
  <g>
    <g>
      <path d="M98.847,67.694c-2.9-7.921-10.415-17.977-16.545-15.289C71.521,57.133,64,57.133,64,57.133s-7.524,0-18.3-4.728c-6.13-2.688-13.641,7.368-16.545,15.289s-7.787,27.221-2.816,33.793c3.606,4.767,14.223-6.084,20.374-13.16a16.094,16.094,0,0,1,12.126-5.51L64,82.808l5.166.009a16.094,16.094,0,0,1,12.126,5.51c6.151,7.076,16.768,17.927,20.374,13.16C106.634,94.915,101.751,75.614,98.847,67.694Z" fill="#455e9f"/>
      <circle cx="63.997" cy="55.847" r="8.182" fill="#ffd92d"/>
    </g>
    <g>
      <path d="M81.6,50.8a62.2,62.2,0,0,1-7.925,2.859,9.873,9.873,0,0,0-2.653-4.839h0a9.969,9.969,0,1,0,2.8,8.427,65.308,65.308,0,0,0,9.19-3.242,4.077,4.077,0,0,1,3.367.145c4.347,1.853,8.825,8.67,10.832,14.142.6,1.636,1.225,3.6,1.81,5.676a1.75,1.75,0,0,0,1.683,1.276,1.732,1.732,0,0,0,.475-.065,1.752,1.752,0,0,0,1.211-2.159c-.609-2.163-1.263-4.213-1.893-5.932C98.248,60.969,93.3,53.3,87.748,50.934A7.593,7.593,0,0,0,81.6,50.8ZM68.549,60.4a6.431,6.431,0,1,1,0-9.1A6.441,6.441,0,0,1,68.549,60.4Z" fill="#001c5b"/>
      <path d="M101.955,78.352a1.749,1.749,0,0,0-1.354,2.071l.158.775a1.75,1.75,0,1,0,3.433-.681l-.166-.811A1.75,1.75,0,0,0,101.955,78.352Z" fill="#001c5b"/>
      <path d="M105.342,88.179a1.75,1.75,0,0,0-3.486.322c.529,5.734-.019,9.859-1.585,11.931a1.1,1.1,0,0,1-.938.476c-1.065.071-5.52-.845-16.721-13.729a17.835,17.835,0,0,0-13.443-6.112L64,81.059l-5.166.008a17.835,17.835,0,0,0-13.443,6.112c-11.2,12.885-15.643,13.787-16.721,13.729a1.1,1.1,0,0,1-.938-.476c-4-5.3-.54-22.307,3.064-32.136,2.007-5.473,6.485-12.29,10.832-14.143a4.077,4.077,0,0,1,3.367-.145c1.535.673,3.091,1.29,4.627,1.833a1.75,1.75,0,1,0,1.168-3.3c-1.455-.516-2.932-1.1-4.389-1.739a7.593,7.593,0,0,0-6.146.131C34.7,53.3,29.752,60.969,27.507,67.091c-2.668,7.278-8.331,27.834-2.569,35.452a4.579,4.579,0,0,0,3.609,1.863c4.178.114,10.745-4.882,19.482-14.93a14.332,14.332,0,0,1,10.808-4.909L64,84.559l5.166.008a14.332,14.332,0,0,1,10.808,4.909c8.617,9.912,15.111,14.934,19.307,14.933.058,0,.117,0,.175,0a4.579,4.579,0,0,0,3.609-1.863C105.194,99.725,105.961,94.892,105.342,88.179Z" fill="#001c5b"/>
      <path d="M76.485,43.361a1.75,1.75,0,0,0,2.475-2.474,21.153,21.153,0,0,0-29.92,0,1.75,1.75,0,0,0,2.475,2.474,17.655,17.655,0,0,1,24.97,0Z" fill="#001c5b"/>
      <path d="M61.173,27.228c.939-.092,1.89-.138,2.827-.138a28.568,28.568,0,0,1,20.334,8.423,1.75,1.75,0,0,0,2.475-2.475A32.045,32.045,0,0,0,64,23.59c-1.049,0-2.115.052-3.165.153a1.751,1.751,0,0,0,.338,3.485Z" fill="#001c5b"/>
      <path d="M54.631,28.556a1.79,1.79,0,0,0,.537-.084c.219-.072.439-.139.661-.2a1.75,1.75,0,0,0-.988-3.358c-.25.073-.5.151-.746.23a1.75,1.75,0,0,0,.536,3.416Z" fill="#001c5b"/>
      <path d="M42.429,36.025a1.748,1.748,0,0,0,1.237-.512,28.828,28.828,0,0,1,6.628-4.952,1.75,1.75,0,0,0-1.67-3.077,32.369,32.369,0,0,0-7.433,5.554,1.75,1.75,0,0,0,1.238,2.987Z" fill="#001c5b"/>
      <path d="M44.506,77.781a1.75,1.75,0,0,0,1.75-1.75V64.639a1.75,1.75,0,0,0-3.5,0v3.946H38.81a1.75,1.75,0,0,0,0,3.5h3.946v3.946A1.75,1.75,0,0,0,44.506,77.781Z" fill="#001c5b"/>
      <path d="M50.2,68.585H49.75a1.75,1.75,0,0,0,0,3.5H50.2a1.75,1.75,0,0,0,0-3.5Z" fill="#001c5b"/>
      <path d="M83.494,68.307A2.709,2.709,0,1,0,80.785,65.6,2.712,2.712,0,0,0,83.494,68.307Z" fill="#001c5b"/>
      <path d="M83.494,77.781a2.709,2.709,0,1,0-2.709-2.709A2.712,2.712,0,0,0,83.494,77.781Z" fill="#001c5b"/>
      <path d="M78.757,67.626a2.709,2.709,0,1,0,2.709,2.709A2.712,2.712,0,0,0,78.757,67.626Z" fill="#001c5b"/>
      <path d="M88.231,73.044a2.709,2.709,0,1,0-2.708-2.709A2.712,2.712,0,0,0,88.231,73.044Z" fill="#001c5b"/>
    </g>
  </g>
</svg>
