<?xml version="1.0" encoding="utf-8"?>
<!-- Generator: Adobe Illustrator 24.0.0, SVG Export Plug-In . SVG Version: 6.00 Build 0)  -->
<svg version="1.1" id="Layer_1" xmlns="http://www.w3.org/2000/svg" xmlns:xlink="http://www.w3.org/1999/xlink" x="0px" y="0px"
	 viewBox="0 0 256 256" style="enable-background:new 0 0 256 256;" xml:space="preserve">
<style type="text/css">
	.st0{fill:#382B73;}
	.st1{fill:#291B4A;}
	.st2{fill:#ED9ABC;}
	.st3{fill:#E54890;}
	.st4{fill:#D3D3D3;}
	.st5{fill:#EBE7F2;}
	.st6{fill:#F9B087;}
	.st7{fill:#FF8639;}
	.st8{fill:#65C1D6;}
	.st9{fill:#149CB2;}
</style>
<g>
	<g>
		<g>
			<g>
				<g>
					
						<ellipse transform="matrix(0.7071 -0.7071 0.7071 0.7071 -53.0193 128)" class="st0" cx="128" cy="128" rx="119.4" ry="119.4"/>
				</g>
			</g>
		</g>
	</g>
	<g>
		<g>
			<g>
				<g>
					<path class="st1" d="M148.367,159.708c4.048,0,7.341-3.292,7.341-7.34v-40.735c0-4.047-3.293-7.34-7.341-7.34h-40.734
						c-4.048,0-7.341,3.292-7.341,7.34v40.735c0,4.047,3.293,7.34,7.341,7.34H148.367z M105.292,152.368v-40.735
						c0-1.29,1.05-2.34,2.341-2.34h40.734c1.291,0,2.341,1.05,2.341,2.34v40.735c0,1.29-1.05,2.34-2.341,2.34h-40.734
						C106.342,154.708,105.292,153.658,105.292,152.368z"/>
				</g>
			</g>
		</g>
		<g>
			<g>
				<g>
					<path class="st1" d="M116.402,122.429H128c1.381,0,2.5-1.119,2.5-2.5s-1.119-2.5-2.5-2.5h-11.598c-1.381,0-2.5,1.119-2.5,2.5
						S115.021,122.429,116.402,122.429z"/>
				</g>
			</g>
		</g>
		<g>
			<g>
				<g>
					<path class="st1" d="M116.402,134.5h23.195c1.381,0,2.5-1.119,2.5-2.5s-1.119-2.5-2.5-2.5h-23.195c-1.381,0-2.5,1.119-2.5,2.5
						S115.021,134.5,116.402,134.5z"/>
				</g>
			</g>
		</g>
		<g>
			<g>
				<g>
					<path class="st1" d="M116.402,146.571h23.195c1.381,0,2.5-1.119,2.5-2.5s-1.119-2.5-2.5-2.5h-23.195
						c-1.381,0-2.5,1.119-2.5,2.5S115.021,146.571,116.402,146.571z"/>
				</g>
			</g>
		</g>
		<g>
			<g>
				<g>
					<path class="st1" d="M128,48.533c1.381,0,2.5-1.119,2.5-2.5s-1.119-2.5-2.5-2.5h-8.858c-1.381,0-2.5,1.119-2.5,2.5
						s1.119,2.5,2.5,2.5H128z"/>
				</g>
			</g>
		</g>
		<g>
			<g>
				<g>
					<path class="st1" d="M136.858,57.753c1.381,0,2.5-1.119,2.5-2.5s-1.119-2.5-2.5-2.5h-17.717c-1.381,0-2.5,1.119-2.5,2.5
						s1.119,2.5,2.5,2.5H136.858z"/>
				</g>
			</g>
		</g>
		<g>
			<g>
				<g>
					<path class="st1" d="M136.858,66.973c1.381,0,2.5-1.119,2.5-2.5s-1.119-2.5-2.5-2.5h-17.717c-1.381,0-2.5,1.119-2.5,2.5
						s1.119,2.5,2.5,2.5H136.858z"/>
				</g>
			</g>
		</g>
		<g>
			<g>
				<g>
					<path class="st1" d="M128,202.027c1.381,0,2.5-1.119,2.5-2.5s-1.119-2.5-2.5-2.5h-8.858c-1.381,0-2.5,1.119-2.5,2.5
						s1.119,2.5,2.5,2.5H128z"/>
				</g>
			</g>
		</g>
		<g>
			<g>
				<g>
					<path class="st1" d="M136.858,211.247c1.381,0,2.5-1.119,2.5-2.5s-1.119-2.5-2.5-2.5h-17.717c-1.381,0-2.5,1.119-2.5,2.5
						s1.119,2.5,2.5,2.5H136.858z"/>
				</g>
			</g>
		</g>
		<g>
			<g>
				<g>
					<path class="st1" d="M136.858,220.467c1.381,0,2.5-1.119,2.5-2.5s-1.119-2.5-2.5-2.5h-17.717c-1.381,0-2.5,1.119-2.5,2.5
						s1.119,2.5,2.5,2.5H136.858z"/>
				</g>
			</g>
		</g>
		<g>
			<g>
				<g>
					<path class="st1" d="M143.557,33.5h-31.113c-3.417,0-6.196,2.78-6.196,6.197v15.051c-26.921,7.559-47.945,28.587-55.501,55.5
						h-15.05c-3.417,0-6.196,2.78-6.196,6.197v31.112c0,3.417,2.779,6.197,6.196,6.197h15.05
						c7.559,26.927,28.573,47.942,55.501,55.501v15.05c0,3.417,2.779,6.197,6.196,6.197h31.113c3.417,0,6.196-2.78,6.196-6.197
						v-15.05c26.927-7.559,47.942-28.574,55.501-55.501h15.05c3.417,0,6.196-2.78,6.196-6.197v-31.112
						c0-3.417-2.779-6.197-6.196-6.197h-15.05c-7.559-26.927-28.573-47.942-55.501-55.501v-15.05
						C149.753,36.28,146.974,33.5,143.557,33.5z M111.247,39.697c0-0.66,0.537-1.197,1.196-1.197h31.113
						c0.659,0,1.196,0.537,1.196,1.197v31.112c0,0.66-0.537,1.197-1.196,1.197h-31.113c-0.659,0-1.196-0.537-1.196-1.197V39.697z
						 M35.696,148.753c-0.659,0-1.196-0.537-1.196-1.197v-31.112c0-0.66,0.537-1.197,1.196-1.197h16.957c0.001,0,0.003,0,0.004,0
						c0.002,0,0.004,0,0.006,0h14.146c0.66,0,1.197,0.537,1.197,1.197v31.112c0,0.66-0.537,1.197-1.197,1.197H35.696z
						 M144.753,224.303c0,0.66-0.537,1.197-1.196,1.197h-31.113c-0.659,0-1.196-0.537-1.196-1.197v-31.112
						c0-0.66,0.537-1.197,1.196-1.197h31.113c0.659,0,1.196,0.537,1.196,1.197V224.303z M203.343,115.248c0.001,0,0.003,0,0.004,0
						h16.957c0.659,0,1.196,0.537,1.196,1.197v31.112c0,0.66-0.537,1.197-1.196,1.197h-31.112c-0.66,0-1.197-0.537-1.197-1.197
						v-31.112c0-0.66,0.537-1.197,1.197-1.197h14.146C203.339,115.247,203.341,115.248,203.343,115.248z M179.44,77.025
						l-17.514,17.513v-7.672c0-1.381-1.119-2.5-2.5-2.5s-2.5,1.119-2.5,2.5v13.707c0,1.381,1.119,2.5,2.5,2.5h13.707
						c1.381,0,2.5-1.119,2.5-2.5s-1.119-2.5-2.5-2.5h-7.672l17.514-17.513c7.787,8.323,13.687,18.435,17.073,29.687h-10.856
						c-3.417,0-6.197,2.78-6.197,6.197v31.112c0,3.417,2.78,6.197,6.197,6.197h10.856c-3.386,11.252-9.286,21.364-17.073,29.687
						l-17.524-17.524h7.682c1.381,0,2.5-1.119,2.5-2.5s-1.119-2.5-2.5-2.5h-13.707c-1.381,0-2.5,1.119-2.5,2.5v13.707
						c0,1.381,1.119,2.5,2.5,2.5s2.5-1.119,2.5-2.5v-7.662l17.514,17.514c-8.323,7.787-18.435,13.687-29.687,17.073v-10.857
						c0-3.417-2.779-6.197-6.196-6.197h-31.113c-3.417,0-6.196,2.78-6.196,6.197v10.857c-11.252-3.386-21.364-9.286-29.687-17.073
						l17.516-17.515v7.663c0,1.381,1.119,2.5,2.5,2.5s2.5-1.119,2.5-2.5v-13.707c0-1.381-1.119-2.5-2.5-2.5H82.869
						c-1.381,0-2.5,1.119-2.5,2.5s1.119,2.5,2.5,2.5h7.681L73.025,183.44c-7.787-8.323-13.687-18.435-17.073-29.687h10.856
						c3.417,0,6.197-2.78,6.197-6.197v-31.112c0-3.417-2.78-6.197-6.197-6.197H55.953C59.338,99,65.24,88.888,73.029,80.564
						l17.509,17.51h-7.669c-1.381,0-2.5,1.119-2.5,2.5s1.119,2.5,2.5,2.5h13.707c1.381,0,2.5-1.119,2.5-2.5V86.867
						c0-1.381-1.119-2.5-2.5-2.5s-2.5,1.119-2.5,2.5v7.675L76.564,77.029c8.324-7.788,18.434-13.693,29.683-17.078v10.858
						c0,3.417,2.779,6.197,6.196,6.197h31.113c3.417,0,6.196-2.78,6.196-6.197V59.952C161.005,63.338,171.117,69.238,179.44,77.025z
						"/>
				</g>
			</g>
		</g>
		<g>
			<g>
				<g>
					<path class="st1" d="M204.747,125.28c1.381,0,2.5-1.119,2.5-2.5s-1.119-2.5-2.5-2.5h-8.858c-1.381,0-2.5,1.119-2.5,2.5
						s1.119,2.5,2.5,2.5H204.747z"/>
				</g>
			</g>
		</g>
		<g>
			<g>
				<g>
					<path class="st1" d="M213.605,134.5c1.381,0,2.5-1.119,2.5-2.5s-1.119-2.5-2.5-2.5h-17.717c-1.381,0-2.5,1.119-2.5,2.5
						s1.119,2.5,2.5,2.5H213.605z"/>
				</g>
			</g>
		</g>
		<g>
			<g>
				<g>
					<path class="st1" d="M213.605,143.72c1.381,0,2.5-1.119,2.5-2.5s-1.119-2.5-2.5-2.5h-17.717c-1.381,0-2.5,1.119-2.5,2.5
						s1.119,2.5,2.5,2.5H213.605z"/>
				</g>
			</g>
		</g>
		<g>
			<g>
				<g>
					<path class="st1" d="M51.253,125.28c1.381,0,2.5-1.119,2.5-2.5s-1.119-2.5-2.5-2.5h-8.858c-1.381,0-2.5,1.119-2.5,2.5
						s1.119,2.5,2.5,2.5H51.253z"/>
				</g>
			</g>
		</g>
		<g>
			<g>
				<g>
					<path class="st1" d="M60.111,134.5c1.381,0,2.5-1.119,2.5-2.5s-1.119-2.5-2.5-2.5H42.395c-1.381,0-2.5,1.119-2.5,2.5
						s1.119,2.5,2.5,2.5H60.111z"/>
				</g>
			</g>
		</g>
		<g>
			<g>
				<g>
					<path class="st1" d="M60.111,143.72c1.381,0,2.5-1.119,2.5-2.5s-1.119-2.5-2.5-2.5H42.395c-1.381,0-2.5,1.119-2.5,2.5
						s1.119,2.5,2.5,2.5H60.111z"/>
				</g>
			</g>
		</g>
	</g>
	<g>
		<g>
			<g>
				<g>
					<path class="st4" d="M96.576,175.623c1.381,0,2.5-1.119,2.5-2.5v-13.707c0-1.381-1.119-2.5-2.5-2.5H82.869
						c-1.381,0-2.5,1.119-2.5,2.5s1.119,2.5,2.5,2.5h11.207v11.207C94.076,174.503,95.195,175.623,96.576,175.623z"/>
				</g>
			</g>
		</g>
		<g>
			<g>
				<g>
					<path class="st4" d="M74.793,184.742l23.103-23.102c0.977-0.976,0.977-2.559,0-3.535c-0.977-0.977-2.559-0.977-3.535,0
						l-23.103,23.102c-0.977,0.976-0.977,2.559,0,3.535c0.488,0.488,1.128,0.732,1.768,0.732S74.305,185.23,74.793,184.742z"/>
				</g>
			</g>
		</g>
		<g>
			<g>
				<g>
					<path class="st5" d="M71.258,184.742c0.488,0.488,1.128,0.732,1.768,0.732s1.279-0.244,1.768-0.732l19.283-19.283v7.663
						c0,1.381,1.119,2.5,2.5,2.5s2.5-1.119,2.5-2.5v-13.707c0-1.381-1.119-2.5-2.5-2.5H82.869c-1.381,0-2.5,1.119-2.5,2.5
						s1.119,2.5,2.5,2.5h7.681l-19.292,19.292C70.281,182.183,70.281,183.766,71.258,184.742z M72.318,182.268l19.292-19.292
						c0.429-0.429,0.557-1.074,0.325-1.635c-0.232-0.56-0.779-0.926-1.386-0.926h-7.681c-0.551,0-1-0.449-1-1s0.449-1,1-1h13.707
						c0.551,0,1,0.449,1,1v13.707c0,0.551-0.449,1-1,1s-1-0.449-1-1v-7.663c0-0.607-0.365-1.154-0.926-1.386
						c-0.186-0.077-0.38-0.114-0.574-0.114c-0.39,0-0.774,0.152-1.061,0.439l-19.283,19.283c-0.189,0.189-0.44,0.293-0.707,0.293
						s-0.518-0.104-0.707-0.293c-0.189-0.189-0.293-0.44-0.293-0.707S72.129,182.457,72.318,182.268z"/>
				</g>
			</g>
		</g>
		<g>
			<g>
				<g>
					<path class="st4" d="M159.426,80.367c-1.381,0-2.5,1.119-2.5,2.5v13.707c0,1.381,1.119,2.5,2.5,2.5h13.707
						c1.381,0,2.5-1.119,2.5-2.5s-1.119-2.5-2.5-2.5h-11.207V82.867C161.926,81.486,160.807,80.367,159.426,80.367z"/>
				</g>
			</g>
		</g>
		<g>
			<g>
				<g>
					<path class="st4" d="M161.831,97.704l22.912-22.912c0.977-0.976,0.977-2.559,0-3.535c-0.977-0.977-2.559-0.977-3.535,0
						l-22.912,22.912c-0.977,0.976-0.977,2.559,0,3.535c0.488,0.488,1.128,0.732,1.768,0.732S161.343,98.192,161.831,97.704z"/>
				</g>
			</g>
		</g>
		<g>
			<g>
				<g>
					<path class="st5" d="M159.426,80.367c-1.381,0-2.5,1.119-2.5,2.5v13.707c0,1.381,1.119,2.5,2.5,2.5h13.707
						c1.381,0,2.5-1.119,2.5-2.5s-1.119-2.5-2.5-2.5h-7.672l19.282-19.282c0.977-0.976,0.977-2.559,0-3.535
						c-0.488-0.488-1.128-0.732-1.768-0.732s-1.279,0.244-1.768,0.732l-19.282,19.282v-7.672
						C161.926,81.486,160.807,80.367,159.426,80.367z M162.986,91.599l19.282-19.282c0.189-0.189,0.44-0.293,0.707-0.293
						s0.518,0.104,0.707,0.293c0.189,0.189,0.293,0.44,0.293,0.707s-0.104,0.518-0.293,0.707L164.4,93.013
						c-0.429,0.429-0.557,1.074-0.325,1.635c0.232,0.56,0.779,0.926,1.386,0.926h7.672c0.551,0,1,0.449,1,1s-0.449,1-1,1h-13.707
						c-0.551,0-1-0.449-1-1V82.867c0-0.551,0.449-1,1-1s1,0.449,1,1v7.672c0,0.607,0.365,1.154,0.926,1.386
						c0.186,0.077,0.38,0.114,0.574,0.114C162.316,92.039,162.699,91.886,162.986,91.599z"/>
				</g>
			</g>
		</g>
		<g>
			<g>
				<g>
					<path class="st4" d="M96.576,99.074c1.381,0,2.5-1.119,2.5-2.5V82.867c0-1.381-1.119-2.5-2.5-2.5s-2.5,1.119-2.5,2.5v11.207
						H82.869c-1.381,0-2.5,1.119-2.5,2.5s1.119,2.5,2.5,2.5H96.576z"/>
				</g>
			</g>
		</g>
		<g>
			<g>
				<g>
					<path class="st4" d="M95.957,98.458c0.64,0,1.279-0.244,1.768-0.732c0.977-0.976,0.977-2.559,0-3.535L74.792,71.257
						c-0.977-0.977-2.559-0.977-3.535,0c-0.977,0.976-0.977,2.559,0,3.535l22.933,22.933C94.678,98.213,95.317,98.458,95.957,98.458
						z"/>
				</g>
			</g>
		</g>
		<g>
			<g>
				<g>
					<path class="st5" d="M80.369,96.574c0,1.381,1.119,2.5,2.5,2.5h13.707c1.381,0,2.5-1.119,2.5-2.5V82.867
						c0-1.381-1.119-2.5-2.5-2.5s-2.5,1.119-2.5,2.5v7.675L74.792,71.257c-0.488-0.488-1.128-0.732-1.768-0.732
						s-1.279,0.244-1.768,0.732c-0.977,0.976-0.977,2.559,0,3.535l19.281,19.282h-7.669C81.488,94.074,80.369,95.193,80.369,96.574z
						 M91.924,94.648c0.232-0.56,0.104-1.206-0.325-1.635L72.317,73.731c-0.189-0.189-0.293-0.44-0.293-0.707
						s0.104-0.518,0.293-0.707c0.189-0.189,0.44-0.293,0.707-0.293s0.518,0.104,0.707,0.293l19.284,19.285
						c0.287,0.287,0.671,0.439,1.061,0.439c0.193,0,0.388-0.037,0.574-0.114c0.561-0.232,0.926-0.779,0.926-1.386v-7.675
						c0-0.551,0.449-1,1-1s1,0.449,1,1v13.707c0,0.551-0.449,1-1,1H82.869c-0.551,0-1-0.449-1-1s0.449-1,1-1h7.669
						C91.145,95.574,91.692,95.208,91.924,94.648z"/>
				</g>
			</g>
		</g>
		<g>
			<g>
				<g>
					<path class="st4" d="M161.926,173.123v-11.207h11.207c1.381,0,2.5-1.119,2.5-2.5s-1.119-2.5-2.5-2.5h-13.707
						c-1.381,0-2.5,1.119-2.5,2.5v13.707c0,1.381,1.119,2.5,2.5,2.5S161.926,174.503,161.926,173.123z"/>
				</g>
			</g>
		</g>
		<g>
			<g>
				<g>
					<path class="st4" d="M182.976,185.476c0.64,0,1.279-0.244,1.768-0.732c0.977-0.976,0.977-2.559,0-3.535l-23.039-23.04
						c-0.977-0.977-2.559-0.977-3.535,0c-0.977,0.976-0.977,2.559,0,3.535l23.039,23.04
						C181.696,185.231,182.336,185.476,182.976,185.476z"/>
				</g>
			</g>
		</g>
		<g>
			<g>
				<g>
					<g>
						<path class="st5" d="M175.633,159.416c0-1.381-1.119-2.5-2.5-2.5h-13.707c-1.381,0-2.5,1.119-2.5,2.5v13.707
							c0,1.381,1.119,2.5,2.5,2.5s2.5-1.119,2.5-2.5v-7.662l19.282,19.283c0.488,0.488,1.128,0.732,1.768,0.732
							s1.279-0.244,1.768-0.732c0.977-0.976,0.977-2.559,0-3.535l-19.292-19.292h7.682
							C174.514,161.916,175.633,160.796,175.633,159.416z M164.065,161.341c-0.232,0.56-0.104,1.206,0.325,1.635l19.292,19.293
							c0.189,0.189,0.293,0.44,0.293,0.707s-0.104,0.518-0.293,0.707c-0.189,0.189-0.44,0.293-0.707,0.293s-0.518-0.104-0.707-0.293
							L162.986,164.4c-0.287-0.287-0.671-0.439-1.061-0.439c-0.193,0-0.388,0.037-0.574,0.114c-0.561,0.232-0.926,0.779-0.926,1.386
							v7.662c0,0.551-0.449,1-1,1s-1-0.449-1-1v-13.707c0-0.551,0.449-1,1-1h13.707c0.551,0,1,0.449,1,1s-0.449,1-1,1h-7.682
							C164.844,160.416,164.297,160.781,164.065,161.341z"/>
					</g>
				</g>
			</g>
		</g>
		<g>
			<g>
				<g>
					<g>
						<path class="st8" d="M52.657,111.248c1.115,0,2.133-0.752,2.421-1.883c6.78-26.614,27.516-47.399,54.114-54.242
							c1.337-0.344,2.143-1.707,1.798-3.044c-0.344-1.337-1.706-2.141-3.044-1.798c-28.367,7.299-50.482,29.466-57.714,57.851
							c-0.341,1.338,0.468,2.699,1.806,3.04C52.245,111.223,52.453,111.248,52.657,111.248z"/>
					</g>
				</g>
			</g>
			<g>
				<g>
					<g>
						<path class="st8" d="M108.13,205.768c0.207,0.053,0.415,0.078,0.619,0.078c1.115,0,2.133-0.752,2.421-1.883
							c0.341-1.338-0.468-2.699-1.806-3.04c-26.687-6.798-47.487-27.6-54.286-54.286c-0.341-1.338-1.7-2.146-3.04-1.806
							c-1.338,0.341-2.146,1.702-1.806,3.04C57.483,176.332,79.668,198.517,108.13,205.768z"/>
					</g>
				</g>
			</g>
			<g>
				<g>
					<g>
						<path class="st8" d="M147.251,205.845c0.204,0,0.412-0.025,0.619-0.078c28.462-7.251,50.646-29.436,57.897-57.897
							c0.341-1.338-0.468-2.699-1.806-3.04c-1.338-0.34-2.699,0.468-3.04,1.806c-6.799,26.687-27.6,47.488-54.286,54.286
							c-1.338,0.341-2.146,1.702-1.806,3.04C145.118,205.093,146.136,205.845,147.251,205.845z"/>
					</g>
				</g>
			</g>
			<g>
				<g>
					<g>
						<path class="st8" d="M200.922,109.364c0.288,1.131,1.306,1.883,2.421,1.883c0.204,0,0.412-0.025,0.619-0.078
							c1.338-0.341,2.146-1.702,1.806-3.04c-7.251-28.461-29.436-50.646-57.897-57.897c-1.337-0.34-2.699,0.468-3.04,1.806
							s0.468,2.699,1.806,3.04C173.322,61.876,194.123,82.678,200.922,109.364z"/>
					</g>
				</g>
			</g>
		</g>
		<g>
			<g>
				<g>
					<g>
						<g>
							<path class="st9" d="M52.657,111.248c1.115,0,2.133-0.752,2.421-1.883c6.78-26.614,27.516-47.399,54.114-54.242
								c1.337-0.344,2.143-1.707,1.798-3.044c-0.29-1.129-1.306-1.877-2.421-1.877c-0.206,0-0.415,0.026-0.623,0.079
								c-28.367,7.299-50.482,29.466-57.714,57.851c-0.341,1.338,0.468,2.699,1.806,3.04
								C52.245,111.223,52.453,111.248,52.657,111.248z M51.686,108.5c7.096-27.853,28.797-49.606,56.632-56.768
								c0.083-0.021,0.168-0.032,0.251-0.032l0,0h0h0c0.456,0,0.854,0.309,0.968,0.752c0.067,0.258,0.029,0.527-0.107,0.757
								c-0.136,0.23-0.353,0.393-0.612,0.46c-27.129,6.98-48.278,28.179-55.194,55.325c-0.113,0.444-0.511,0.754-0.967,0.754
								c-0.084,0-0.167-0.01-0.248-0.031C51.874,109.58,51.55,109.034,51.686,108.5z"/>
						</g>
					</g>
				</g>
			</g>
			<g>
				<g>
					<g>
						<g>
							<path class="st9" d="M108.13,205.768c0.207,0.053,0.415,0.078,0.619,0.078c1.115,0,2.133-0.752,2.421-1.883
								c0.341-1.338-0.468-2.699-1.806-3.04c-26.687-6.798-47.487-27.6-54.286-54.286c-0.288-1.131-1.304-1.883-2.421-1.883
								c-0.204,0-0.412,0.025-0.619,0.078c-1.338,0.341-2.146,1.702-1.806,3.04C57.483,176.332,79.668,198.517,108.13,205.768z
								 M52.407,146.284c0.083-0.021,0.167-0.032,0.25-0.032l0,0h0h0c0.457,0,0.855,0.31,0.968,0.754
								c6.935,27.219,28.151,48.436,55.369,55.369c0.535,0.136,0.859,0.682,0.723,1.216c-0.113,0.444-0.511,0.754-0.967,0.754
								c-0.084,0-0.168-0.01-0.249-0.031c-27.929-7.115-49.699-28.885-56.814-56.814C51.55,146.966,51.874,146.42,52.407,146.284z"
								/>
						</g>
					</g>
				</g>
			</g>
			<g>
				<g>
					<g>
						<g>
							<path class="st9" d="M147.251,205.845c0.204,0,0.412-0.025,0.619-0.078c28.462-7.251,50.646-29.436,57.897-57.897
								c0.341-1.338-0.468-2.699-1.806-3.04c-0.207-0.053-0.414-0.078-0.618-0.078c-1.116,0-2.134,0.752-2.422,1.883
								c-6.799,26.687-27.6,47.488-54.286,54.286c-1.338,0.341-2.146,1.702-1.806,3.04
								C145.118,205.093,146.136,205.845,147.251,205.845z M147.006,202.375c27.219-6.934,48.435-28.15,55.37-55.369
								c0.113-0.444,0.511-0.754,0.969-0.754c0.083,0,0.166,0.011,0.247,0.031c0.535,0.136,0.859,0.682,0.723,1.216
								c-7.115,27.929-28.885,49.699-56.814,56.814c-0.081,0.021-0.165,0.031-0.249,0.031c-0.457,0-0.854-0.31-0.967-0.754
								C146.148,203.057,146.472,202.512,147.006,202.375z"/>
						</g>
					</g>
				</g>
			</g>
			<g>
				<g>
					<g>
						<g>
							<path class="st9" d="M200.922,109.364c0.288,1.131,1.306,1.883,2.421,1.883c0.204,0,0.412-0.025,0.619-0.078
								c1.338-0.341,2.146-1.702,1.806-3.04c-7.251-28.461-29.436-50.646-57.897-57.897c-0.207-0.053-0.414-0.078-0.618-0.078
								c-1.116,0-2.134,0.752-2.422,1.883c-0.341,1.338,0.468,2.699,1.806,3.04C173.322,61.876,194.123,82.678,200.922,109.364z
								 M146.284,52.408c0.113-0.444,0.511-0.754,0.969-0.754c0.083,0,0.166,0.011,0.247,0.031
								c27.929,7.115,49.699,28.885,56.814,56.814c0.136,0.534-0.188,1.08-0.722,1.216c-0.081,0.021-0.165,0.031-0.249,0.031
								c-0.457,0-0.854-0.31-0.967-0.754c-6.935-27.219-28.151-48.436-55.369-55.369C146.472,53.488,146.148,52.943,146.284,52.408z
								"/>
						</g>
					</g>
				</g>
			</g>
		</g>
		<g>
			<g>
				<g>
					<g>
						<path class="st8" d="M148.367,155.708c4.048,0,7.341-3.292,7.341-7.34v-40.735c0-4.047-3.293-7.34-7.341-7.34h-40.734
							c-4.048,0-7.341,3.292-7.341,7.34v40.735c0,4.047,3.293,7.34,7.341,7.34H148.367z M105.292,148.368v-40.735
							c0-1.29,1.05-2.34,2.341-2.34h40.734c1.291,0,2.341,1.05,2.341,2.34v40.735c0,1.29-1.05,2.34-2.341,2.34h-40.734
							C106.342,150.708,105.292,149.658,105.292,148.368z"/>
					</g>
				</g>
			</g>
			<g>
				<g>
					<g>
						<path class="st8" d="M116.402,118.429H128c1.381,0,2.5-1.119,2.5-2.5s-1.119-2.5-2.5-2.5h-11.598c-1.381,0-2.5,1.119-2.5,2.5
							S115.021,118.429,116.402,118.429z"/>
					</g>
				</g>
			</g>
			<g>
				<g>
					<g>
						<path class="st8" d="M116.402,130.5h23.195c1.381,0,2.5-1.119,2.5-2.5s-1.119-2.5-2.5-2.5h-23.195c-1.381,0-2.5,1.119-2.5,2.5
							S115.021,130.5,116.402,130.5z"/>
					</g>
				</g>
			</g>
			<g>
				<g>
					<g>
						<path class="st8" d="M116.402,142.571h23.195c1.381,0,2.5-1.119,2.5-2.5s-1.119-2.5-2.5-2.5h-23.195
							c-1.381,0-2.5,1.119-2.5,2.5S115.021,142.571,116.402,142.571z"/>
					</g>
				</g>
			</g>
		</g>
		<g>
			<g>
				<g>
					<g>
						<path class="st9" d="M148.367,152.208c2.118,0,3.841-1.723,3.841-3.84v-40.735c0-2.117-1.723-3.84-3.841-3.84h-40.734
							c-2.118,0-3.841,1.723-3.841,3.84v40.735c0,2.117,1.723,3.84,3.841,3.84H148.367z M105.292,148.368v-40.735
							c0-1.29,1.05-2.34,2.341-2.34h40.734c1.291,0,2.341,1.05,2.341,2.34v40.735c0,1.29-1.05,2.34-2.341,2.34h-40.734
							C106.342,150.708,105.292,149.658,105.292,148.368z"/>
						<path class="st9" d="M148.367,155.708c4.048,0,7.341-3.292,7.341-7.34v-40.735c0-4.047-3.293-7.34-7.341-7.34h-40.734
							c-4.048,0-7.341,3.292-7.341,7.34v40.735c0,4.047,3.293,7.34,7.341,7.34H148.367z M101.792,148.368v-40.735
							c0-3.22,2.62-5.84,5.841-5.84h40.734c3.221,0,5.841,2.62,5.841,5.84v40.735c0,3.22-2.62,5.84-5.841,5.84h-40.734
							C104.412,154.208,101.792,151.588,101.792,148.368z"/>
					</g>
				</g>
			</g>
			<g>
				<g>
					<g>
						<path class="st9" d="M116.402,118.429H128c1.381,0,2.5-1.119,2.5-2.5s-1.119-2.5-2.5-2.5h-11.598c-1.381,0-2.5,1.119-2.5,2.5
							S115.021,118.429,116.402,118.429z M116.402,114.929H128c0.551,0,1,0.449,1,1s-0.449,1-1,1h-11.598c-0.551,0-1-0.449-1-1
							S115.851,114.929,116.402,114.929z"/>
					</g>
				</g>
			</g>
			<g>
				<g>
					<g>
						<path class="st9" d="M116.402,130.5h23.195c1.381,0,2.5-1.119,2.5-2.5s-1.119-2.5-2.5-2.5h-23.195c-1.381,0-2.5,1.119-2.5,2.5
							S115.021,130.5,116.402,130.5z M116.402,127h23.195c0.551,0,1,0.449,1,1s-0.449,1-1,1h-23.195c-0.551,0-1-0.449-1-1
							S115.851,127,116.402,127z"/>
					</g>
				</g>
			</g>
			<g>
				<g>
					<g>
						<path class="st9" d="M116.402,142.571h23.195c1.381,0,2.5-1.119,2.5-2.5s-1.119-2.5-2.5-2.5h-23.195
							c-1.381,0-2.5,1.119-2.5,2.5S115.021,142.571,116.402,142.571z M116.402,139.071h23.195c0.551,0,1,0.449,1,1s-0.449,1-1,1
							h-23.195c-0.551,0-1-0.449-1-1S115.851,139.071,116.402,139.071z"/>
					</g>
				</g>
			</g>
		</g>
		<g>
			<g>
				<g>
					<g>
						<g>
							<path class="st6" d="M143.557,73.006c3.417,0,6.196-2.78,6.196-6.197V35.697c0-3.417-2.779-6.197-6.196-6.197h-31.113
								c-3.417,0-6.196,2.78-6.196,6.197v31.112c0,3.417,2.779,6.197,6.196,6.197H143.557z M111.247,66.809V35.697
								c0-0.66,0.537-1.197,1.196-1.197h31.113c0.659,0,1.196,0.537,1.196,1.197v31.112c0,0.66-0.537,1.197-1.196,1.197h-31.113
								C111.784,68.006,111.247,67.469,111.247,66.809z"/>
						</g>
					</g>
				</g>
				<g>
					<g>
						<g>
							<path class="st6" d="M128,44.533c1.381,0,2.5-1.119,2.5-2.5s-1.119-2.5-2.5-2.5h-8.858c-1.381,0-2.5,1.119-2.5,2.5
								s1.119,2.5,2.5,2.5H128z"/>
						</g>
					</g>
				</g>
				<g>
					<g>
						<g>
							<path class="st6" d="M136.858,53.753c1.381,0,2.5-1.119,2.5-2.5s-1.119-2.5-2.5-2.5h-17.717c-1.381,0-2.5,1.119-2.5,2.5
								s1.119,2.5,2.5,2.5H136.858z"/>
						</g>
					</g>
				</g>
				<g>
					<g>
						<g>
							<path class="st6" d="M136.858,62.973c1.381,0,2.5-1.119,2.5-2.5s-1.119-2.5-2.5-2.5h-17.717c-1.381,0-2.5,1.119-2.5,2.5
								s1.119,2.5,2.5,2.5H136.858z"/>
						</g>
					</g>
				</g>
			</g>
			<g>
				<g>
					<g>
						<g>
							<path class="st6" d="M143.557,226.5c3.417,0,6.196-2.78,6.196-6.197v-31.112c0-3.417-2.779-6.197-6.196-6.197h-31.113
								c-3.417,0-6.196,2.78-6.196,6.197v31.112c0,3.417,2.779,6.197,6.196,6.197H143.557z M111.247,220.303v-31.112
								c0-0.66,0.537-1.197,1.196-1.197h31.113c0.659,0,1.196,0.537,1.196,1.197v31.112c0,0.66-0.537,1.197-1.196,1.197h-31.113
								C111.784,221.5,111.247,220.963,111.247,220.303z"/>
						</g>
					</g>
				</g>
				<g>
					<g>
						<g>
							<path class="st6" d="M128,198.027c1.381,0,2.5-1.119,2.5-2.5s-1.119-2.5-2.5-2.5h-8.858c-1.381,0-2.5,1.119-2.5,2.5
								s1.119,2.5,2.5,2.5H128z"/>
						</g>
					</g>
				</g>
				<g>
					<g>
						<g>
							<path class="st6" d="M136.858,207.247c1.381,0,2.5-1.119,2.5-2.5s-1.119-2.5-2.5-2.5h-17.717c-1.381,0-2.5,1.119-2.5,2.5
								s1.119,2.5,2.5,2.5H136.858z"/>
						</g>
					</g>
				</g>
				<g>
					<g>
						<g>
							<path class="st6" d="M136.858,216.467c1.381,0,2.5-1.119,2.5-2.5s-1.119-2.5-2.5-2.5h-17.717c-1.381,0-2.5,1.119-2.5,2.5
								s1.119,2.5,2.5,2.5H136.858z"/>
						</g>
					</g>
				</g>
			</g>
		</g>
		<g>
			<g>
				<g>
					<g>
						<g>
							<path class="st6" d="M220.304,149.753c3.417,0,6.196-2.78,6.196-6.197v-31.112c0-3.417-2.779-6.197-6.196-6.197h-31.112
								c-3.417,0-6.197,2.78-6.197,6.197v31.112c0,3.417,2.78,6.197,6.197,6.197H220.304z M187.994,143.556v-31.112
								c0-0.66,0.537-1.197,1.197-1.197h31.112c0.659,0,1.196,0.537,1.196,1.197v31.112c0,0.66-0.537,1.197-1.196,1.197h-31.112
								C188.531,144.753,187.994,144.216,187.994,143.556z"/>
						</g>
					</g>
				</g>
				<g>
					<g>
						<g>
							<path class="st6" d="M204.747,121.28c1.381,0,2.5-1.119,2.5-2.5s-1.119-2.5-2.5-2.5h-8.858c-1.381,0-2.5,1.119-2.5,2.5
								s1.119,2.5,2.5,2.5H204.747z"/>
						</g>
					</g>
				</g>
				<g>
					<g>
						<g>
							<path class="st6" d="M213.605,130.5c1.381,0,2.5-1.119,2.5-2.5s-1.119-2.5-2.5-2.5h-17.717c-1.381,0-2.5,1.119-2.5,2.5
								s1.119,2.5,2.5,2.5H213.605z"/>
						</g>
					</g>
				</g>
				<g>
					<g>
						<g>
							<path class="st6" d="M213.605,139.72c1.381,0,2.5-1.119,2.5-2.5s-1.119-2.5-2.5-2.5h-17.717c-1.381,0-2.5,1.119-2.5,2.5
								s1.119,2.5,2.5,2.5H213.605z"/>
						</g>
					</g>
				</g>
			</g>
			<g>
				<g>
					<g>
						<g>
							<path class="st6" d="M66.809,149.753c3.417,0,6.197-2.78,6.197-6.197v-31.112c0-3.417-2.78-6.197-6.197-6.197H35.696
								c-3.417,0-6.196,2.78-6.196,6.197v31.112c0,3.417,2.779,6.197,6.196,6.197H66.809z M34.5,143.556v-31.112
								c0-0.66,0.537-1.197,1.196-1.197h31.112c0.66,0,1.197,0.537,1.197,1.197v31.112c0,0.66-0.537,1.197-1.197,1.197H35.696
								C35.037,144.753,34.5,144.216,34.5,143.556z"/>
						</g>
					</g>
				</g>
				<g>
					<g>
						<g>
							<path class="st6" d="M51.253,121.28c1.381,0,2.5-1.119,2.5-2.5s-1.119-2.5-2.5-2.5h-8.858c-1.381,0-2.5,1.119-2.5,2.5
								s1.119,2.5,2.5,2.5H51.253z"/>
						</g>
					</g>
				</g>
				<g>
					<g>
						<g>
							<path class="st6" d="M60.111,130.5c1.381,0,2.5-1.119,2.5-2.5s-1.119-2.5-2.5-2.5H42.395c-1.381,0-2.5,1.119-2.5,2.5
								s1.119,2.5,2.5,2.5H60.111z"/>
						</g>
					</g>
				</g>
				<g>
					<g>
						<g>
							<path class="st6" d="M60.111,139.72c1.381,0,2.5-1.119,2.5-2.5s-1.119-2.5-2.5-2.5H42.395c-1.381,0-2.5,1.119-2.5,2.5
								s1.119,2.5,2.5,2.5H60.111z"/>
						</g>
					</g>
				</g>
			</g>
		</g>
		<g>
			<g>
				<g>
					<g>
						<path class="st7" d="M143.557,69.506c1.487,0,2.696-1.21,2.696-2.697V35.697c0-1.487-1.21-2.697-2.696-2.697h-31.113
							c-1.487,0-2.696,1.21-2.696,2.697v31.112c0,1.487,1.21,2.697,2.696,2.697H143.557z M111.247,66.809V35.697
							c0-0.66,0.537-1.197,1.196-1.197h31.113c0.659,0,1.196,0.537,1.196,1.197v31.112c0,0.66-0.537,1.197-1.196,1.197h-31.113
							C111.784,68.006,111.247,67.469,111.247,66.809z"/>
						<path class="st7" d="M143.557,73.006c3.417,0,6.196-2.78,6.196-6.197V35.697c0-3.417-2.779-6.197-6.196-6.197h-31.113
							c-3.417,0-6.196,2.78-6.196,6.197v31.112c0,3.417,2.779,6.197,6.196,6.197H143.557z M107.747,66.809V35.697
							c0-2.59,2.107-4.697,4.696-4.697h31.113c2.59,0,4.696,2.107,4.696,4.697v31.112c0,2.59-2.107,4.697-4.696,4.697h-31.113
							C109.854,71.506,107.747,69.399,107.747,66.809z"/>
					</g>
				</g>
			</g>
			<g>
				<g>
					<g>
						<path class="st7" d="M128,44.533c1.381,0,2.5-1.119,2.5-2.5s-1.119-2.5-2.5-2.5h-8.858c-1.381,0-2.5,1.119-2.5,2.5
							s1.119,2.5,2.5,2.5H128z M118.142,42.033c0-0.551,0.449-1,1-1H128c0.551,0,1,0.449,1,1s-0.449,1-1,1h-8.858
							C118.59,43.033,118.142,42.585,118.142,42.033z"/>
					</g>
				</g>
			</g>
			<g>
				<g>
					<g>
						<path class="st7" d="M136.858,53.753c1.381,0,2.5-1.119,2.5-2.5s-1.119-2.5-2.5-2.5h-17.717c-1.381,0-2.5,1.119-2.5,2.5
							s1.119,2.5,2.5,2.5H136.858z M118.142,51.253c0-0.551,0.449-1,1-1h17.717c0.551,0,1,0.449,1,1s-0.449,1-1,1h-17.717
							C118.59,52.253,118.142,51.804,118.142,51.253z"/>
					</g>
				</g>
			</g>
			<g>
				<g>
					<g>
						<path class="st7" d="M136.858,62.973c1.381,0,2.5-1.119,2.5-2.5s-1.119-2.5-2.5-2.5h-17.717c-1.381,0-2.5,1.119-2.5,2.5
							s1.119,2.5,2.5,2.5H136.858z M118.142,60.473c0-0.551,0.449-1,1-1h17.717c0.551,0,1,0.449,1,1s-0.449,1-1,1h-17.717
							C118.59,61.473,118.142,61.024,118.142,60.473z"/>
					</g>
				</g>
			</g>
			<g>
				<g>
					<g>
						<path class="st7" d="M143.557,223c1.487,0,2.696-1.21,2.696-2.697v-31.112c0-1.487-1.21-2.697-2.696-2.697h-31.113
							c-1.487,0-2.696,1.21-2.696,2.697v31.112c0,1.487,1.21,2.697,2.696,2.697H143.557z M111.247,220.303v-31.112
							c0-0.66,0.537-1.197,1.196-1.197h31.113c0.659,0,1.196,0.537,1.196,1.197v31.112c0,0.66-0.537,1.197-1.196,1.197h-31.113
							C111.784,221.5,111.247,220.963,111.247,220.303z"/>
						<path class="st7" d="M143.557,226.5c3.417,0,6.196-2.78,6.196-6.197v-31.112c0-3.417-2.779-6.197-6.196-6.197h-31.113
							c-3.417,0-6.196,2.78-6.196,6.197v31.112c0,3.417,2.779,6.197,6.196,6.197H143.557z M107.747,220.303v-31.112
							c0-2.59,2.107-4.697,4.696-4.697h31.113c2.59,0,4.696,2.107,4.696,4.697v31.112c0,2.59-2.107,4.697-4.696,4.697h-31.113
							C109.854,225,107.747,222.893,107.747,220.303z"/>
					</g>
				</g>
			</g>
			<g>
				<g>
					<g>
						<path class="st7" d="M128,198.027c1.381,0,2.5-1.119,2.5-2.5s-1.119-2.5-2.5-2.5h-8.858c-1.381,0-2.5,1.119-2.5,2.5
							s1.119,2.5,2.5,2.5H128z M118.142,195.527c0-0.551,0.449-1,1-1H128c0.551,0,1,0.449,1,1s-0.449,1-1,1h-8.858
							C118.59,196.527,118.142,196.079,118.142,195.527z"/>
					</g>
				</g>
			</g>
			<g>
				<g>
					<g>
						<path class="st7" d="M136.858,207.247c1.381,0,2.5-1.119,2.5-2.5s-1.119-2.5-2.5-2.5h-17.717c-1.381,0-2.5,1.119-2.5,2.5
							s1.119,2.5,2.5,2.5H136.858z M118.142,204.747c0-0.551,0.449-1,1-1h17.717c0.551,0,1,0.449,1,1s-0.449,1-1,1h-17.717
							C118.59,205.747,118.142,205.298,118.142,204.747z"/>
					</g>
				</g>
			</g>
			<g>
				<g>
					<g>
						<path class="st7" d="M136.858,216.467c1.381,0,2.5-1.119,2.5-2.5s-1.119-2.5-2.5-2.5h-17.717c-1.381,0-2.5,1.119-2.5,2.5
							s1.119,2.5,2.5,2.5H136.858z M118.142,213.967c0-0.551,0.449-1,1-1h17.717c0.551,0,1,0.449,1,1s-0.449,1-1,1h-17.717
							C118.59,214.967,118.142,214.518,118.142,213.967z"/>
					</g>
				</g>
			</g>
			<g>
				<g>
					<g>
						<path class="st7" d="M220.304,149.753c3.417,0,6.196-2.78,6.196-6.197v-31.112c0-3.417-2.779-6.197-6.196-6.197h-31.112
							c-3.417,0-6.197,2.78-6.197,6.197v31.112c0,3.417,2.78,6.197,6.197,6.197H220.304z M184.494,143.556v-31.112
							c0-2.59,2.107-4.697,4.697-4.697h31.112c2.59,0,4.696,2.107,4.696,4.697v31.112c0,2.59-2.107,4.697-4.696,4.697h-31.112
							C186.601,148.253,184.494,146.146,184.494,143.556z"/>
						<path class="st7" d="M220.304,146.253c1.487,0,2.696-1.21,2.696-2.697v-31.112c0-1.487-1.21-2.697-2.696-2.697h-31.112
							c-1.487,0-2.697,1.21-2.697,2.697v31.112c0,1.487,1.21,2.697,2.697,2.697H220.304z M187.994,143.556v-31.112
							c0-0.66,0.537-1.197,1.197-1.197h31.112c0.659,0,1.196,0.537,1.196,1.197v31.112c0,0.66-0.537,1.197-1.196,1.197h-31.112
							C188.531,144.753,187.994,144.216,187.994,143.556z"/>
					</g>
				</g>
			</g>
			<g>
				<g>
					<g>
						<path class="st7" d="M204.747,121.28c1.381,0,2.5-1.119,2.5-2.5s-1.119-2.5-2.5-2.5h-8.858c-1.381,0-2.5,1.119-2.5,2.5
							s1.119,2.5,2.5,2.5H204.747z M194.889,118.78c0-0.551,0.449-1,1-1h8.858c0.551,0,1,0.449,1,1s-0.449,1-1,1h-8.858
							C195.337,119.78,194.889,119.332,194.889,118.78z"/>
					</g>
				</g>
			</g>
			<g>
				<g>
					<g>
						<path class="st7" d="M213.605,130.5c1.381,0,2.5-1.119,2.5-2.5s-1.119-2.5-2.5-2.5h-17.717c-1.381,0-2.5,1.119-2.5,2.5
							s1.119,2.5,2.5,2.5H213.605z M194.889,128c0-0.551,0.449-1,1-1h17.717c0.551,0,1,0.449,1,1s-0.449,1-1,1h-17.717
							C195.337,129,194.889,128.551,194.889,128z"/>
					</g>
				</g>
			</g>
			<g>
				<g>
					<g>
						<path class="st7" d="M213.605,139.72c1.381,0,2.5-1.119,2.5-2.5s-1.119-2.5-2.5-2.5h-17.717c-1.381,0-2.5,1.119-2.5,2.5
							s1.119,2.5,2.5,2.5H213.605z M194.889,137.22c0-0.551,0.449-1,1-1h17.717c0.551,0,1,0.449,1,1s-0.449,1-1,1h-17.717
							C195.337,138.22,194.889,137.771,194.889,137.22z"/>
					</g>
				</g>
			</g>
			<g>
				<g>
					<g>
						<path class="st7" d="M66.809,146.253c1.487,0,2.697-1.21,2.697-2.697v-31.112c0-1.487-1.21-2.697-2.697-2.697H35.696
							c-1.487,0-2.696,1.21-2.696,2.697v31.112c0,1.487,1.21,2.697,2.696,2.697H66.809z M34.5,143.556v-31.112
							c0-0.66,0.537-1.197,1.196-1.197h31.112c0.66,0,1.197,0.537,1.197,1.197v31.112c0,0.66-0.537,1.197-1.197,1.197H35.696
							C35.037,144.753,34.5,144.216,34.5,143.556z"/>
						<path class="st7" d="M66.809,149.753c3.417,0,6.197-2.78,6.197-6.197v-31.112c0-3.417-2.78-6.197-6.197-6.197H35.696
							c-3.417,0-6.196,2.78-6.196,6.197v31.112c0,3.417,2.779,6.197,6.196,6.197H66.809z M31,143.556v-31.112
							c0-2.59,2.107-4.697,4.696-4.697h31.112c2.59,0,4.697,2.107,4.697,4.697v31.112c0,2.59-2.107,4.697-4.697,4.697H35.696
							C33.107,148.253,31,146.146,31,143.556z"/>
					</g>
				</g>
			</g>
			<g>
				<g>
					<g>
						<path class="st7" d="M51.253,121.28c1.381,0,2.5-1.119,2.5-2.5s-1.119-2.5-2.5-2.5h-8.858c-1.381,0-2.5,1.119-2.5,2.5
							s1.119,2.5,2.5,2.5H51.253z M41.395,118.78c0-0.551,0.449-1,1-1h8.858c0.551,0,1,0.449,1,1s-0.449,1-1,1h-8.858
							C41.843,119.78,41.395,119.332,41.395,118.78z"/>
					</g>
				</g>
			</g>
			<g>
				<g>
					<g>
						<path class="st7" d="M60.111,130.5c1.381,0,2.5-1.119,2.5-2.5s-1.119-2.5-2.5-2.5H42.395c-1.381,0-2.5,1.119-2.5,2.5
							s1.119,2.5,2.5,2.5H60.111z M41.395,128c0-0.551,0.449-1,1-1h17.717c0.551,0,1,0.449,1,1s-0.449,1-1,1H42.395
							C41.843,129,41.395,128.551,41.395,128z"/>
					</g>
				</g>
			</g>
			<g>
				<g>
					<g>
						<path class="st7" d="M60.111,139.72c1.381,0,2.5-1.119,2.5-2.5s-1.119-2.5-2.5-2.5H42.395c-1.381,0-2.5,1.119-2.5,2.5
							s1.119,2.5,2.5,2.5H60.111z M41.395,137.22c0-0.551,0.449-1,1-1h17.717c0.551,0,1,0.449,1,1s-0.449,1-1,1H42.395
							C41.843,138.22,41.395,137.771,41.395,137.22z"/>
					</g>
				</g>
			</g>
		</g>
	</g>
</g>
</svg>
