<?xml version="1.0" standalone="no"?>
<!DOCTYPE svg PUBLIC "-//W3C//DTD SVG 20010904//EN"
 "http://www.w3.org/TR/2001/REC-SVG-20010904/DTD/svg10.dtd">
<svg version="1.0" xmlns="http://www.w3.org/2000/svg"
 width="1380.000000pt" height="772.000000pt" viewBox="0 0 1380.000000 772.000000"
 preserveAspectRatio="xMidYMid meet">
<metadata>
Created by potrace 1.16, written by Peter Selinger 2001-2019
</metadata>
<g transform="translate(0.000000,772.000000) scale(0.100000,-0.100000)"
fill="#000000" stroke="none">
<path d="M11150 6759 c-305 -37 -539 -194 -689 -462 -36 -63 -73 -172 -92
-266 -19 -97 -7 -289 25 -391 129 -420 515 -672 952 -621 215 25 397 121 548
291 76 85 131 181 175 304 35 101 35 102 35 271 1 167 0 172 -33 265 -37 107
-88 205 -138 266 -18 23 -33 45 -33 50 0 5 22 16 48 26 163 56 179 67 166 103
-9 22 -68 15 -139 -15 -26 -11 -50 -18 -53 -15 -3 3 5 33 18 68 13 34 24 76
24 92 1 26 -3 30 -27 33 -24 3 -29 -2 -46 -41 -11 -25 -27 -72 -37 -106 -9
-34 -21 -64 -26 -67 -5 -4 -22 5 -36 18 -148 137 -430 223 -642 197z m226 -84
c108 -17 212 -59 309 -125 108 -73 107 -63 5 -165 l-89 -89 -23 21 c-74 68
-217 116 -343 116 -503 0 -739 -614 -366 -955 33 -30 91 -68 141 -92 l85 -41
140 0 140 0 85 41 c179 86 292 236 321 428 19 122 -17 274 -92 383 -16 23 -29
45 -29 50 0 5 39 46 86 93 l86 84 34 -40 c46 -54 106 -172 140 -274 25 -77 28
-99 28 -225 0 -131 -2 -146 -32 -235 -45 -135 -109 -239 -207 -335 -94 -93
-188 -150 -325 -196 -89 -30 -104 -32 -235 -32 -132 0 -146 2 -235 32 -52 18
-124 48 -158 68 -133 73 -259 208 -330 349 -103 205 -103 494 0 698 141 280
407 450 713 455 33 0 101 -6 151 -14z m19 -339 c56 -24 145 -78 145 -90 0 -5
-35 -44 -77 -85 -181 -177 -254 -258 -247 -274 14 -38 50 -14 216 144 191 183
171 177 227 66 153 -300 -58 -665 -396 -685 -47 -2 -103 1 -128 7 -270 68
-429 333 -356 593 45 165 188 305 345 338 62 14 225 5 271 -14z"/>
<path d="M7970 6175 c-272 -40 -501 -73 -770 -111 -556 -77 -751 -105 -885
-124 -77 -11 -270 -38 -430 -60 -159 -23 -382 -54 -495 -70 -113 -16 -259 -37
-325 -46 -364 -49 -589 -155 -810 -378 -256 -259 -387 -580 -389 -946 0 -220
22 -311 147 -595 283 -643 625 -1232 907 -1559 189 -219 346 -334 507 -372 82
-19 152 -13 259 22 310 101 516 331 607 679 41 158 50 270 45 557 -4 185 -2
260 6 267 6 5 110 23 231 41 806 114 807 114 838 106 22 -5 26 -16 46 -118
127 -639 392 -1006 803 -1112 335 -86 528 -6 721 295 230 360 449 1136 562
1994 33 248 32 354 -1 504 -60 268 -186 493 -382 683 -168 163 -362 273 -582
331 -163 42 -372 46 -610 12z m503 -140 c337 -59 649 -294 816 -615 27 -52 63
-135 79 -185 26 -77 35 -123 57 -275 9 -69 -52 -508 -120 -860 -99 -510 -214
-901 -351 -1190 -162 -340 -300 -456 -517 -435 -410 41 -662 322 -806 900 -16
66 -35 152 -41 190 -12 78 -43 120 -112 156 -57 29 -67 28 -618 -52 -74 -11
-218 -31 -320 -45 -102 -13 -201 -29 -220 -35 -54 -17 -96 -54 -122 -107 -21
-42 -23 -56 -17 -108 17 -132 21 -371 10 -479 -33 -304 -107 -490 -252 -636
-77 -76 -151 -124 -264 -171 -68 -28 -92 -33 -160 -32 -68 0 -88 4 -135 28
-212 109 -459 392 -718 823 -64 106 -73 121 -155 268 -140 251 -371 739 -448
948 -86 231 -55 575 75 843 141 287 366 487 666 592 99 34 127 39 1475 227
259 36 562 79 675 95 113 16 414 58 670 94 256 36 476 67 490 69 64 11 285 6
363 -8z"/>
<path d="M8035 5384 c-94 -49 -145 -128 -145 -223 1 -106 48 -184 136 -227 46
-22 64 -26 123 -22 91 5 153 42 199 118 28 47 32 63 32 122 0 53 -6 80 -25
117 -25 50 -81 102 -129 121 -42 16 -156 12 -191 -6z m170 -63 c136 -62 149
-235 24 -318 -76 -50 -183 -28 -240 50 -24 33 -29 50 -29 99 0 86 34 139 110
172 47 20 87 19 135 -3z"/>
<path d="M8492 4999 c-149 -74 -188 -262 -79 -385 54 -61 106 -86 182 -87 70
0 116 17 169 63 57 51 80 102 80 185 0 59 -4 78 -27 117 -28 49 -86 101 -131
118 -48 18 -147 12 -194 -11z m151 -50 c47 -13 106 -63 123 -106 29 -69 11
-147 -47 -201 -114 -107 -299 -25 -299 134 0 80 54 149 138 174 37 11 42 11
85 -1z"/>
<path d="M7712 4914 c-89 -44 -132 -118 -132 -227 0 -139 103 -240 245 -239
72 1 103 11 155 54 111 89 120 266 19 368 -74 73 -191 92 -287 44z m203 -68
c79 -42 109 -150 66 -234 -55 -109 -187 -133 -277 -50 -103 95 -67 262 65 302
53 17 90 13 146 -18z"/>
<path d="M5177 4906 c-63 -31 -98 -65 -128 -124 -20 -39 -24 -61 -23 -127 0
-44 3 -92 7 -106 7 -26 6 -27 -58 -34 -90 -9 -176 -54 -215 -110 -42 -61 -51
-90 -51 -163 0 -107 56 -192 159 -240 47 -21 64 -24 150 -21 l96 4 12 -72 c16
-93 37 -135 91 -183 133 -117 331 -78 413 80 26 51 32 106 21 185 -6 38 -8 71
-6 73 2 2 33 7 69 12 84 10 146 41 194 95 45 52 62 101 62 181 -1 170 -148
284 -327 253 -76 -13 -78 -12 -87 66 -3 29 -14 73 -25 97 -58 133 -226 196
-354 134z m201 -65 c71 -36 95 -81 117 -217 9 -54 17 -99 18 -101 2 -1 47 5
101 13 88 13 105 13 150 0 87 -26 139 -95 139 -186 0 -123 -73 -188 -237 -208
-49 -7 -91 -14 -94 -16 -2 -3 1 -50 8 -105 15 -120 9 -155 -31 -211 -79 -109
-251 -103 -321 11 -20 33 -30 68 -39 136 -7 51 -16 97 -19 103 -5 8 -35 8
-106 -1 -157 -20 -217 3 -267 101 -36 69 -32 134 11 195 41 58 92 83 205 97
111 14 104 1 85 139 -9 68 -9 97 1 129 14 49 63 106 105 125 46 20 130 18 174
-4z"/>
<path d="M8135 4576 c-89 -42 -144 -126 -145 -222 0 -75 48 -167 108 -205 69
-44 136 -55 206 -35 135 40 211 175 172 308 -43 146 -203 219 -341 154z m178
-60 c79 -33 124 -131 98 -217 -24 -80 -123 -141 -202 -124 -173 36 -203 270
-44 341 39 17 107 18 148 0z"/>
<path d="M1661 4373 c-6 -11 -7 -125 -4 -298 l6 -281 -42 -19 c-129 -58 -126
-250 6 -297 l35 -13 -3 -253 c-3 -212 -2 -254 10 -262 9 -5 22 -5 33 1 17 9
18 25 11 258 l-6 249 40 21 c132 67 132 240 1 298 l-41 18 5 285 c3 157 4 291
1 298 -7 18 -40 15 -52 -5z m92 -660 c26 -24 48 -77 41 -100 -21 -64 -56 -93
-115 -93 -48 0 -99 56 -99 108 0 43 28 87 64 103 29 12 85 3 109 -18z"/>
<path d="M2018 4378 c-3 -7 -2 -202 0 -435 l5 -422 -34 -14 c-46 -19 -96 -78
-105 -122 -13 -71 24 -143 91 -175 l44 -21 -6 -111 c-5 -98 -4 -112 11 -124
39 -28 46 -9 46 117 l0 119 33 14 c73 31 116 116 96 189 -13 48 -52 93 -94
109 l-35 12 -2 435 -3 436 -21 3 c-12 2 -24 -3 -26 -10z m81 -932 c52 -27 68
-112 31 -159 -50 -63 -147 -49 -183 25 -46 94 56 183 152 134z"/>
<path d="M2377 4384 c-4 -4 -7 -82 -7 -173 l-1 -166 -39 -18 c-22 -10 -49 -32
-61 -49 -23 -32 -35 -101 -25 -142 9 -36 55 -87 93 -102 l33 -14 0 -379 c0
-329 2 -380 15 -391 37 -31 40 -4 40 392 l0 381 29 8 c130 35 141 230 16 296
l-45 24 0 167 c0 161 -1 167 -20 170 -12 2 -24 0 -28 -4z m92 -420 c60 -50 46
-145 -26 -179 -72 -35 -153 20 -153 104 0 24 9 42 34 67 44 44 99 47 145 8z"/>
<path d="M9993 2816 l-28 -24 -3 -279 c-4 -356 -15 -333 164 -333 l125 0 -3
28 -3 27 -107 3 c-73 2 -107 6 -110 15 -1 7 -1 125 2 262 l5 250 103 3 102 3
0 34 0 35 -109 0 c-102 0 -112 -2 -138 -24z"/>
<path d="M11110 2805 l0 -35 105 0 105 0 0 -265 0 -265 -104 0 -104 0 -4 -30
-5 -30 123 0 c175 0 164 -23 164 330 l0 278 -31 26 c-29 25 -37 26 -140 26
l-109 0 0 -35z"/>
<path d="M10640 1685 l0 -134 -137 -3 -138 -3 0 -25 0 -25 308 -3 307 -2 0 30
0 30 -135 0 -135 0 0 135 0 135 -35 0 -35 0 0 -135z"/>
</g>
</svg>
