<svg width="131" height="32" viewBox="0 0 131 32" fill="none" xmlns="http://www.w3.org/2000/svg">
<g clip-path="url(#clip0_4012_39213)">
<path d="M15.1384 27.8005H6.04325L4.43877 31.7395H0.0078125L7.70369 13.5977H13.5339L21.1831 31.7395H16.7522L15.1384 27.8005ZM13.6458 24.1993L11.9131 20.0017L10.6095 16.7725L7.54511 24.2084L13.6458 24.1993Z" fill="white"/>
<path d="M32.0413 23.7105L28.2026 27.4659V31.7428H24.0469V13.6055H28.2026V23.0098L30.8146 19.6671L36.6774 13.6055H42.3258L35.1056 20.6785L42.5123 31.7428H37.3957L32.0413 23.7105Z" fill="white"/>
<path d="M64.4721 13.6016L56.8252 31.7389H51.4427L43.7422 13.6016H48.5649L52.5878 23.1873L54.1083 27.3327L55.5985 23.1873L59.6493 13.6016H64.4721Z" fill="white"/>
<path d="M71.5776 17.3592V20.5182H81.2511V24.1465H71.5776V27.9813H81.7315V31.7389H67.4219V13.6016H81.7315V17.3592H71.5776Z" fill="white"/>
<path d="M106.116 22.6959C106.116 28.2677 101.771 31.9936 95.3508 31.9936C88.9306 31.9936 84.5859 28.2632 84.5859 22.6959C84.5859 17.0742 88.9283 13.3438 95.3508 13.3438C101.773 13.3438 106.116 17.0742 106.116 22.6959ZM101.741 22.6687C101.741 18.4189 100.195 17.0719 95.3462 17.0719C90.4978 17.0719 88.9516 18.4212 88.9516 22.6687C88.9516 26.9161 90.4954 28.2654 95.3462 28.2654C100.197 28.2654 101.741 26.9184 101.741 22.6687" fill="white"/>
<path d="M130.658 16.8447C130.601 16.6303 130.512 16.425 130.395 16.2347L121.193 0.473957C120.908 0.0204105 120.593 0 120.176 0C119.758 0 119.441 0.0181428 119.157 0.473957L109.957 16.2347C109.839 16.4247 109.749 16.6301 109.691 16.8447C109.63 17.2665 109.828 17.4797 110.096 17.7382C110.365 17.9967 110.628 18.2303 111.16 18.1056L120.176 15.0986L129.189 18.1056C129.721 18.2303 129.959 18.0262 130.253 17.7382C130.546 17.4502 130.719 17.2665 130.658 16.8447" fill="#0D43EE"/>
</g>
<defs>
<clipPath id="clip0_4012_39213">
<rect width="130.667" height="32" fill="white"/>
</clipPath>
</defs>
</svg>
