<?xml version="1.0" encoding="utf-8"?>
<!-- Generator: Adobe Illustrator 24.1.1, SVG Export Plug-In . SVG Version: 6.00 Build 0)  -->
<svg version="1.1" id="Layer_1" xmlns="http://www.w3.org/2000/svg" xmlns:xlink="http://www.w3.org/1999/xlink" x="0px" y="0px"
	 viewBox="0 0 512 512" style="enable-background:new 0 0 512 512;" xml:space="preserve">
<style type="text/css">
	.st0{fill:#444444;}
</style>
<g>
	<path class="st0" d="M111.5,67.2h85.1v238.6c0,107.6-51.5,145.1-133.9,145.1c-20.1,0-45.9-3.4-62.7-9l9.5-68.9
		c11.8,3.9,26.9,6.7,43.7,6.7c35.9,0,58.3-16.3,58.3-74.5V67.2z M270.6,357.4c22.4,11.8,58.3,23.5,94.7,23.5
		c39.2,0,59.9-16.2,59.9-41.4c0-23-17.9-37-63.3-52.7c-62.7-22.4-104.2-57.1-104.2-112.6c0-64.4,54.3-113.1,142.8-113.1
		c43.1,0,73.9,8.4,96.3,19l-19,68.4c-14.6-7.3-42-17.9-78.4-17.9c-37,0-54.9,17.4-54.9,36.4c0,24.1,20.7,34.7,70,53.8
		c66.7,24.6,97.5,59.4,97.5,113.2c0,63.3-48.2,117.1-151.8,117.1c-43.1,0-85.7-11.8-107-23.5L270.6,357.4L270.6,357.4z"/>
</g>
</svg>
