<?xml version="1.0" encoding="utf-8"?>
<!-- Generator: Adobe Illustrator 24.3.0, SVG Export Plug-In . SVG Version: 6.00 Build 0)  -->
<svg version="1.1" id="Layer_1" xmlns="http://www.w3.org/2000/svg" xmlns:xlink="http://www.w3.org/1999/xlink" x="0px" y="0px"
	 viewBox="0 0 180 180" enable-background="new 0 0 180 180" xml:space="preserve">
<g>
	<g id="XMLID_960_">
		<path fill="#FFDB76" d="M154.622,90.001c0,35.689-28.933,64.621-64.622,64.621c-35.69,0-64.622-28.932-64.622-64.621
			C25.378,54.31,54.31,25.378,90,25.378C125.689,25.378,154.622,54.31,154.622,90.001z"/>
	</g>
	<g>
		<g>
			<g>
				<g>
					<path fill="#CCCBC9" d="M70.022,116.071c0-2.137,0-5.232,0-5.232H65.86h-4.161c0,0,0,3.096,0,5.232
						c0,2.135-5.661,3.863-5.661,3.863h9.822h9.823C75.682,119.935,70.022,118.206,70.022,116.071z"/>
				</g>
				<g>
					<path fill="#CCCBC9" d="M70.022,115.806c0-2.117,0-4.967,0-4.967h-8.324c0,0,0,2.85,0,4.967H70.022z"/>
				</g>
				<g>
					<path fill="#333333" d="M76.523,120.575c0,0.465-0.369,0.842-0.824,0.842H56.021c-0.455,0-0.824-0.377-0.824-0.842l0,0
						c0-0.465,0.369-0.844,0.824-0.844h19.678C76.154,119.731,76.523,120.11,76.523,120.575L76.523,120.575z"/>
				</g>
			</g>
			<g>
				<g>
					<path fill="#333333" d="M91.944,72.917H39.776c-0.905,0-1.638,0.75-1.638,1.676v32.457h55.445V74.593
						C93.582,73.667,92.848,72.917,91.944,72.917z"/>
				</g>
				<g>
					<rect x="40.766" y="75.065" fill="#FFFFFF" width="50.188" height="29.834"/>
				</g>
				<g>
					<path fill="#FFFFFF" d="M38.138,106.722v4.979c0,0.926,0.733,1.676,1.638,1.676h52.168c0.904,0,1.638-0.75,1.638-1.676v-4.979
						H38.138z"/>
				</g>
				<g>
					<path fill="#CCCBC9" d="M67.325,110.05c0,0.826-0.656,1.498-1.465,1.498c-0.809,0-1.464-0.672-1.464-1.498
						c0-0.828,0.655-1.5,1.464-1.5C66.668,108.55,67.325,109.222,67.325,110.05z"/>
				</g>
				<g>
					<g>
						<rect x="40.766" y="75.054" fill="#A3A3A3" width="50.188" height="2.625"/>
					</g>
					<g>
						<path fill="#FF916E" d="M43.271,76.366c0,0.396-0.314,0.719-0.702,0.719c-0.388,0-0.702-0.322-0.702-0.719
							s0.314-0.719,0.702-0.719C42.956,75.647,43.271,75.97,43.271,76.366z"/>
					</g>
					<g>
						<path fill="#FFDB76" d="M45.705,76.366c0,0.396-0.314,0.719-0.702,0.719c-0.388,0-0.702-0.322-0.702-0.719
							s0.314-0.719,0.702-0.719C45.391,75.647,45.705,75.97,45.705,76.366z"/>
					</g>
					<g>
						<path fill="#ADEBF6" d="M48.14,76.366c0,0.396-0.315,0.719-0.703,0.719c-0.388,0-0.703-0.322-0.703-0.719
							s0.315-0.719,0.703-0.719C47.825,75.647,48.14,75.97,48.14,76.366z"/>
					</g>
					<g>
						<path fill="#CCCBC9" d="M89.189,76.366l0.508-0.521c0.074-0.074,0.074-0.195,0-0.271c-0.073-0.076-0.192-0.076-0.266,0
							l-0.509,0.52l-0.508-0.52c-0.074-0.076-0.193-0.076-0.266,0c-0.074,0.076-0.074,0.197,0,0.271l0.508,0.521l-0.508,0.521
							c-0.074,0.074-0.074,0.195,0,0.271c0.073,0.076,0.192,0.076,0.266,0l0.508-0.52l0.509,0.52c0.074,0.076,0.193,0.076,0.266,0
							c0.074-0.076,0.074-0.197,0-0.271L89.189,76.366z"/>
					</g>
				</g>
			</g>
			<g>
				<g>
					<g>
						<rect x="45.043" y="85.396" fill="#ADEBF6" width="12.2" height="11.244"/>
					</g>
				</g>
				<g>
					<g>
						<rect x="59.628" y="85.396" fill="#FF916E" width="12.199" height="11.244"/>
					</g>
				</g>
				<g>
					<g>
						<rect x="74.477" y="85.396" fill="#E6E6E6" width="12.2" height="11.244"/>
					</g>
				</g>
			</g>
		</g>
		<g>
			<g>
				<g>
					<path fill="#FF916E" d="M44.634,122.687c0,0.381-0.302,0.691-0.676,0.691l0,0c-0.373,0-0.675-0.311-0.675-0.691v-15.91
						c0-0.383,0.302-0.691,0.675-0.691l0,0c0.374,0,0.676,0.309,0.676,0.691V122.687z"/>
				</g>
			</g>
			<g>
				<g>
					<rect x="43.957" y="108.179" fill="#FF916E" width="6.447" height="1.352"/>
				</g>
			</g>
			<g>
				<g>
					<rect x="43.957" y="112.501" fill="#FF916E" width="6.447" height="1.352"/>
				</g>
			</g>
			<g>
				<g>
					<rect x="43.957" y="116.487" fill="#FF916E" width="6.447" height="1.35"/>
				</g>
			</g>
			<g>
				<g>
					<rect x="43.957" y="120.339" fill="#FF916E" width="6.447" height="1.35"/>
				</g>
			</g>
			<g>
				<g>
					<path fill="#FF916E" d="M51.389,122.687c0,0.381-0.302,0.691-0.675,0.691l0,0c-0.374,0-0.676-0.311-0.676-0.691v-15.91
						c0-0.383,0.302-0.691,0.676-0.691l0,0c0.373,0,0.675,0.309,0.675,0.691V122.687z"/>
				</g>
			</g>
		</g>
		<g id="XMLID_812_">
			<path fill="#333333" d="M71.806,123.825l20.924,20.926l20.925-20.926H71.806z M82.854,128.403h19.754l-9.877,9.877
				L82.854,128.403z"/>
			<g id="XMLID_918_">
				<g id="XMLID_958_">
					
						<rect x="91.583" y="141.839" transform="matrix(-0.7076 -0.7066 0.7066 -0.7076 55.9852 308.496)" fill="#CECECE" width="0.465" height="1.654"/>
				</g>
				<g id="XMLID_957_">
					
						<rect x="90.39" y="140.647" transform="matrix(-0.7055 -0.7087 0.7087 -0.7055 54.2928 305.5073)" fill="#CECECE" width="0.465" height="1.653"/>
				</g>
				<g id="XMLID_949_">
					
						<rect x="89.562" y="138.571" transform="matrix(-0.7061 -0.7081 0.7081 -0.7061 54.1346 302.2964)" fill="#CECECE" width="0.466" height="2.688"/>
				</g>
				<g id="XMLID_948_">
					
						<rect x="88.004" y="138.261" transform="matrix(-0.7081 -0.7061 0.7061 -0.7081 52.4996 299.8798)" fill="#CECECE" width="0.465" height="1.654"/>
				</g>
				<g id="XMLID_945_">
					
						<rect x="86.812" y="137.068" transform="matrix(-0.705 -0.7093 0.7093 -0.705 50.6039 296.841)" fill="#CECECE" width="0.465" height="1.653"/>
				</g>
				<g id="XMLID_944_">
					
						<rect x="85.984" y="134.992" transform="matrix(-0.7075 -0.7067 0.7067 -0.7075 50.872 293.7256)" fill="#CECECE" width="0.464" height="2.688"/>
				</g>
				<g id="XMLID_942_">
					
						<rect x="84.425" y="134.681" transform="matrix(-0.7076 -0.7066 0.7066 -0.7076 48.8197 291.2167)" fill="#CECECE" width="0.465" height="1.655"/>
				</g>
				<g id="XMLID_941_">
					<polygon fill="#CECECE" points="83.885,133.567 84.215,133.896 83.045,135.063 82.716,134.735 					"/>
				</g>
				<g id="XMLID_939_">
					
						<rect x="82.405" y="131.412" transform="matrix(-0.7076 -0.7066 0.7066 -0.7076 47.3148 285.0901)" fill="#CECECE" width="0.465" height="2.689"/>
				</g>
				<g id="XMLID_938_">
					
						<rect x="80.847" y="131.103" transform="matrix(-0.7075 -0.7067 0.7067 -0.7075 45.2145 282.5718)" fill="#CECECE" width="0.464" height="1.654"/>
				</g>
				<g id="XMLID_933_">
					<polygon fill="#CECECE" points="80.307,129.987 80.636,130.317 79.466,131.487 79.137,131.157 					"/>
				</g>
				<g id="XMLID_932_">
					<polygon fill="#CECECE" points="79.845,128.063 80.174,128.394 78.273,130.294 77.945,129.964 					"/>
				</g>
				<g id="XMLID_922_">
					<polygon fill="#CECECE" points="77.921,127.603 78.25,127.931 77.081,129.101 76.751,128.772 					"/>
				</g>
				<g id="XMLID_921_">
					
						<rect x="76.075" y="126.332" transform="matrix(-0.705 -0.7093 0.7093 -0.705 39.9137 270.9213)" fill="#CECECE" width="0.465" height="1.653"/>
				</g>
				<g id="XMLID_919_">
					
						<rect x="75.248" y="124.256" transform="matrix(-0.7076 -0.7066 0.7066 -0.7076 40.147 267.8119)" fill="#CECECE" width="0.465" height="2.688"/>
				</g>
			</g>
			<g id="XMLID_813_">
				<g id="XMLID_910_">
					
						<rect x="110.783" y="124.469" transform="matrix(-0.7082 0.706 -0.706 -0.7082 278.0984 135.6485)" fill="#CECECE" width="0.465" height="1.654"/>
				</g>
				<g id="XMLID_904_">
					<polygon fill="#CECECE" points="109.074,126.067 109.403,125.739 110.573,126.909 110.243,127.237 					"/>
				</g>
				<g id="XMLID_900_">
					<polygon fill="#CECECE" points="107.149,126.53 107.479,126.202 109.38,128.103 109.051,128.431 					"/>
				</g>
				<g id="XMLID_899_">
					
						<rect x="107.205" y="128.048" transform="matrix(-0.7081 0.7061 -0.7061 -0.7081 274.5143 144.2642)" fill="#CECECE" width="0.464" height="1.655"/>
				</g>
				<g id="XMLID_868_">
					
						<rect x="106.012" y="129.241" transform="matrix(-0.7071 0.7071 -0.7071 -0.7071 273.3427 146.9144)" fill="#CECECE" width="0.464" height="1.654"/>
				</g>
				<g id="XMLID_867_">
					
						<rect x="104.453" y="129.552" transform="matrix(-0.7055 0.7087 -0.7087 -0.7055 271.3089 149.0501)" fill="#CECECE" width="0.465" height="2.688"/>
				</g>
				<g id="XMLID_865_">
					
						<rect x="103.626" y="131.627" transform="matrix(-0.7061 0.7081 -0.7081 -0.7061 270.9841 152.4451)" fill="#CECECE" width="0.465" height="1.653"/>
				</g>
				<g id="XMLID_864_">
					
						<rect x="102.433" y="132.82" transform="matrix(-0.705 0.7093 -0.7093 -0.705 269.8302 155.046)" fill="#CECECE" width="0.465" height="1.653"/>
				</g>
				<g id="XMLID_862_">
					<polygon fill="#CECECE" points="99.993,133.688 100.322,133.358 102.222,135.259 101.894,135.589 					"/>
				</g>
				<g id="XMLID_861_">
					<polygon fill="#CECECE" points="99.531,135.612 99.86,135.282 101.029,136.452 100.7,136.782 					"/>
				</g>
				<g id="XMLID_858_">
					<polygon fill="#CECECE" points="98.338,136.804 98.667,136.476 99.836,137.646 99.507,137.974 					"/>
				</g>
				<g id="XMLID_857_">
					
						<rect x="97.296" y="136.709" transform="matrix(-0.7076 0.7066 -0.7066 -0.7076 264.0875 166.8336)" fill="#CECECE" width="0.465" height="2.687"/>
				</g>
				<g id="XMLID_856_">
					
						<rect x="96.469" y="138.784" transform="matrix(-0.7071 0.7071 -0.7071 -0.7071 263.8 169.9532)" fill="#CECECE" width="0.464" height="1.655"/>
				</g>
				<g id="XMLID_820_">
					
						<rect x="95.276" y="139.978" transform="matrix(-0.7076 0.7066 -0.7066 -0.7076 262.5827 172.9612)" fill="#CECECE" width="0.464" height="1.654"/>
				</g>
				<g id="XMLID_819_">
					
						<rect x="93.717" y="140.287" transform="matrix(-0.7072 0.707 -0.707 -0.7072 260.5248 175.3721)" fill="#CECECE" width="0.464" height="2.688"/>
				</g>
			</g>
		</g>
		<g id="XMLID_804_">
			<g id="XMLID_810_">
				<polygon fill-rule="evenodd" clip-rule="evenodd" fill="#FF916E" points="136.332,59.05 136.354,88.431 132.076,88.444 
					132.051,59.063 				"/>
			</g>
			<g id="XMLID_809_">
				<g>
					<polygon fill-rule="evenodd" clip-rule="evenodd" fill="#FF916E" points="134.953,59.054 134.977,88.435 133.452,88.44 
						133.429,59.058 					"/>
				</g>
			</g>
			<g id="XMLID_805_">
				<g id="XMLID_808_">
					<path fill-rule="evenodd" clip-rule="evenodd" fill="#FFFFFF" d="M134.181,55.606c0,0-2.13,3.387-2.13,3.457l0,0l0,0l0,0
						c0.002,0.201,0.326,0.363,0.728,0.361c0.369,0,0.66-0.141,0.706-0.32c0.047,0.178,0.339,0.318,0.708,0.316
						c0.369,0,0.66-0.143,0.706-0.32c0.047,0.178,0.339,0.316,0.709,0.316c0.4-0.002,0.724-0.166,0.724-0.367
						C136.332,58.981,134.181,55.606,134.181,55.606z"/>
				</g>
				<g id="XMLID_806_">
					<polygon fill-rule="evenodd" clip-rule="evenodd" fill="#333333" points="133.164,57.255 135.207,57.251 134.181,55.606 					
						"/>
				</g>
			</g>
		</g>
		<g>
			<g>
				<path fill="#FFFFFF" d="M94.196,119.052v1.184c0,0.652,0.517,1.182,1.156,1.182h45.354c0.639,0,1.156-0.529,1.156-1.182v-1.184
					H94.196z"/>
			</g>
			<g>
				<path fill="#333333" d="M139.658,119.052V94.028c0-1.391-1.103-2.52-2.463-2.52H98.864c-1.36,0-2.462,1.129-2.462,2.52v25.023
					H139.658z"/>
			</g>
			<g>
				<rect x="98.55" y="93.897" fill="#FFFFFF" width="38.959" height="23.219"/>
			</g>
			<g>
				<g>
					<g>
						<rect x="99.615" y="100.534" fill="#ADEBF6" width="10.791" height="9.945"/>
					</g>
				</g>
				<g>
					<g>
						<rect x="112.516" y="100.534" fill="#FF916E" width="10.792" height="9.945"/>
					</g>
				</g>
				<g>
					<g>
						<rect x="125.652" y="100.534" fill="#E6E6E6" width="10.792" height="9.945"/>
					</g>
				</g>
			</g>
			<g>
				<path fill="#FFFFFF" d="M118.665,92.714c0,0.359-0.285,0.65-0.636,0.65c-0.351,0-0.635-0.291-0.635-0.65
					c0-0.357,0.284-0.65,0.635-0.65C118.381,92.063,118.665,92.356,118.665,92.714z"/>
			</g>
			<g>
				<rect x="98.55" y="93.897" fill="#BAC0C4" width="38.959" height="1.949"/>
			</g>
			<g>
				<path fill="#FF916E" d="M100.409,94.872c0,0.295-0.232,0.533-0.52,0.533c-0.289,0-0.522-0.238-0.522-0.533
					c0-0.295,0.234-0.535,0.522-0.535C100.176,94.337,100.409,94.577,100.409,94.872z"/>
			</g>
			<g>
				<path fill="#FFDB76" d="M102.216,94.872c0,0.295-0.233,0.533-0.521,0.533c-0.288,0-0.521-0.238-0.521-0.533
					c0-0.295,0.233-0.535,0.521-0.535C101.983,94.337,102.216,94.577,102.216,94.872z"/>
			</g>
			<g>
				<path fill="#ADEBF6" d="M104.023,94.872c0,0.295-0.233,0.533-0.521,0.533c-0.288,0-0.521-0.238-0.521-0.533
					c0-0.295,0.233-0.535,0.521-0.535C103.79,94.337,104.023,94.577,104.023,94.872z"/>
			</g>
			<g>
				<path fill="#333333" d="M136.259,94.872l0.378-0.387c0.054-0.057,0.054-0.146,0-0.203c-0.055-0.055-0.144-0.055-0.198,0
					l-0.378,0.387l-0.378-0.387c-0.054-0.055-0.143-0.055-0.197,0c-0.054,0.057-0.054,0.146,0,0.203l0.377,0.387l-0.377,0.387
					c-0.054,0.055-0.054,0.146,0,0.201c0.054,0.057,0.143,0.057,0.197,0l0.378-0.385l0.378,0.385c0.054,0.057,0.143,0.057,0.198,0
					c0.054-0.055,0.054-0.146,0-0.201L136.259,94.872z"/>
			</g>
		</g>
		<g>
			<g>
				<g>
					<path fill="#333333" d="M64.847,80.13v-2.027h2.027v1.824v0.203H64.847L64.847,80.13z M66.671,79.927v-0.201V79.927
						L66.671,79.927z M65.251,79.726h1.217v-1.217h-1.217V79.726L65.251,79.726z"/>
				</g>
			</g>
			<g>
				<g>
					<path fill="#333333" d="M56.707,85.298v-2.027h2.027v1.824v0.203H56.707L56.707,85.298z M58.53,85.095v-0.203V85.095
						L58.53,85.095z M57.112,84.892h1.215v-1.215h-1.215V84.892L57.112,84.892z"/>
				</g>
			</g>
			<g>
				<g>
					<path fill="#333333" d="M73.155,85.399v-2.027h2.027v1.824v0.203H73.155L73.155,85.399z M74.979,85.196v-0.201V85.196
						L74.979,85.196z M73.561,84.995h1.215v-1.217h-1.215V84.995L73.561,84.995z"/>
				</g>
			</g>
			<g>
				<g>
					<g>
						<polygon fill="#333333" points="56.639,79.319 56.639,78.913 65.05,78.913 65.05,79.319 56.639,79.319 						"/>
					</g>
				</g>
				<g>
					<g>
						<path fill="#333333" d="M54.916,78.915c0-0.562,0.454-1.016,1.014-1.016l0,0c0.56,0,1.013,0.453,1.013,1.016l0,0
							c0,0.559-0.453,1.012-1.013,1.012l0,0C55.37,79.927,54.916,79.474,54.916,78.915L54.916,78.915z M55.322,78.915
							c0.001,0.334,0.273,0.606,0.608,0.607l0,0c0.335-0.002,0.606-0.273,0.608-0.607l0,0c-0.002-0.336-0.273-0.607-0.608-0.609l0,0
							C55.595,78.308,55.323,78.579,55.322,78.915L55.322,78.915z"/>
					</g>
				</g>
			</g>
			<g>
				<g>
					<g>
						<polygon fill="#333333" points="66.671,79.319 66.671,78.913 75.081,78.913 75.081,79.319 66.671,79.319 						"/>
					</g>
				</g>
				<g>
					<g>
						<path fill="#333333" d="M74.777,78.913c0-0.559,0.454-1.014,1.014-1.014l0,0c0.559,0,1.013,0.455,1.013,1.014l0,0
							c0,0.561-0.454,1.014-1.013,1.014l0,0C75.23,79.927,74.777,79.474,74.777,78.913L74.777,78.913z M75.791,79.522
							c0.335-0.002,0.606-0.273,0.607-0.609l0,0c-0.001-0.334-0.272-0.605-0.607-0.607l0,0c-0.336,0.002-0.607,0.273-0.609,0.607
							l0,0C75.183,79.249,75.455,79.521,75.791,79.522L75.791,79.522z"/>
					</g>
				</g>
			</g>
			<g>
				<g>
					<path fill="#333333" d="M66.644,79.362l0.044-0.402c2.941,0.328,6.387,1.789,7.651,4.439l0,0l-0.367,0.172
						C72.831,81.132,69.496,79.671,66.644,79.362L66.644,79.362z"/>
				</g>
			</g>
			<g>
				<g>
					<path fill="#333333" d="M57.465,83.329c1.081-2.553,4.602-4.062,7.566-4.373l0,0l0.042,0.402
						c-2.871,0.287-6.287,1.814-7.233,4.125l0,0L57.465,83.329L57.465,83.329z"/>
				</g>
			</g>
		</g>
		<g>
			<g>
				<g>
					<g>
						<path fill="#333333" d="M113.656,77.405c0,0.711-0.51,1.289-1.14,1.289H96.696c-0.628,0-1.139-0.578-1.139-1.289V50.31
							c0-0.713,0.51-1.291,1.139-1.291h15.819c0.63,0,1.14,0.578,1.14,1.291V77.405z"/>
					</g>
				</g>
				<g>
					<g>
						<polygon fill="#FFFFFF" points="112.324,77.362 96.888,77.362 96.888,50.351 112.324,50.351 112.324,77.362 						"/>
					</g>
				</g>
				<g>
					<g>
						<rect x="98.218" y="51.548" fill="#ADEBF6" width="6.92" height="1.729"/>
					</g>
				</g>
				<g>
					<g>
						<rect x="97.952" y="59.981" fill="#ADEBF6" width="12.908" height="1.73"/>
					</g>
				</g>
				<g>
					<g>
						<rect x="97.952" y="63.976" fill="#FF916E" width="12.908" height="1.729"/>
					</g>
				</g>
				<g>
					<g>
						<rect x="97.952" y="68.231" fill="#E6E6E6" width="12.908" height="1.73"/>
					</g>
				</g>
				<g>
					<g>
						<rect x="98.218" y="68.765" fill="#FFFFFF" width="4.658" height="0.398"/>
					</g>
				</g>
				<g>
					<g>
						<rect x="98.218" y="64.64" fill="#FFFFFF" width="4.658" height="0.398"/>
					</g>
				</g>
				<g>
					<g>
						<rect x="98.218" y="60.735" fill="#FFFFFF" width="4.658" height="0.4"/>
					</g>
				</g>
			</g>
			<g>
				<g>
					<g>
						<path fill="#333333" d="M121.403,82.948V82.62h1.635v0.328H121.403L121.403,82.948z M118.133,82.948V82.62h1.635v0.328
							H118.133L118.133,82.948z M114.863,82.948V82.62h1.635v0.328H114.863L114.863,82.948z M111.593,82.948V82.62h1.635v0.328
							H111.593L111.593,82.948z M108.323,82.948V82.62h1.635v0.328H108.323L108.323,82.948z M105.053,82.948V82.62h1.635v0.328
							H105.053L105.053,82.948z M101.783,82.948V82.62h1.635v0.328H101.783L101.783,82.948z M98.512,82.948V82.62h1.635v0.328
							H98.512L98.512,82.948z M95.243,82.948V82.62h1.635v0.328H95.243L95.243,82.948z M91.972,82.948V82.62h1.636v0.328H91.972
							L91.972,82.948z M88.702,82.948V82.62h1.636v0.328H88.702L88.702,82.948z M86.035,82.948l0.001-0.93h0.326v0.602h0.707v0.328
							H86.035L86.035,82.948z M122.874,81.509v-1.635h0.327v1.635H122.874L122.874,81.509z M86.035,80.384v-1.635h0.327v1.635
							H86.035L86.035,80.384z M122.874,78.239v-1.635h0.327v1.635H122.874L122.874,78.239z M86.035,77.114V75.48h0.327v1.635H86.035
							L86.035,77.114z M122.874,74.97v-1.635h0.327v1.635H122.874L122.874,74.97z M86.035,73.845v-1.637h0.327v1.637H86.035
							L86.035,73.845z M122.874,71.7v-1.635h0.327V71.7H122.874L122.874,71.7z M86.035,70.575v-1.637h0.327v1.637H86.035
							L86.035,70.575z M122.874,68.431v-1.635h0.327v1.635H122.874L122.874,68.431z M86.035,67.306v-1.637h0.327v1.637H86.035
							L86.035,67.306z M122.874,65.161v-1.635h0.327v1.635H122.874L122.874,65.161z M86.035,64.034v-1.635h0.327v1.635H86.035
							L86.035,64.034z M122.874,61.892v-1.637h0.327v1.637H122.874L122.874,61.892z M86.035,60.765V59.13h0.327v1.635H86.035
							L86.035,60.765z M122.874,58.62v-1.635h0.327v1.635H122.874L122.874,58.62z M86.035,57.493V55.86h0.327v1.633H86.035
							L86.035,57.493z M122.874,55.351v-1.635h0.327v1.635H122.874L122.874,55.351z M86.035,54.224v-1.635h0.327v1.635H86.035
							L86.035,54.224z M122.874,52.081v-1.635h0.327v1.635H122.874L122.874,52.081z M86.035,50.954v-1.635h0.327v1.635H86.035
							L86.035,50.954z M122.874,48.812v-1.637h0.327v1.637H122.874L122.874,48.812z M86.035,47.685V46.05h0.327v1.635H86.035
							L86.035,47.685z M122.874,45.54v-0.781h-0.525v-0.328h0.852v1.109H122.874L122.874,45.54z M119.079,44.759v-0.328h1.635v0.328
							H119.079L119.079,44.759z M115.809,44.759v-0.328h1.635v0.328H115.809L115.809,44.759z M112.539,44.759v-0.328h1.635v0.328
							H112.539L112.539,44.759z M109.269,44.759v-0.328h1.634v0.328H109.269L109.269,44.759z M105.999,44.759v-0.328h1.635v0.328
							H105.999L105.999,44.759z M102.729,44.759v-0.328h1.635v0.328H102.729L102.729,44.759z M99.459,44.759v-0.328h1.635v0.328
							H99.459L99.459,44.759z M96.189,44.759v-0.328h1.635v0.328H96.189L96.189,44.759z M92.919,44.759v-0.328h1.635v0.328H92.919
							L92.919,44.759z M89.649,44.759v-0.328h1.635v0.328H89.649L89.649,44.759z M86.379,44.759v-0.328h1.635v0.328H86.379
							L86.379,44.759z"/>
					</g>
				</g>
				<g>
					<g>
						<path fill="#333333" d="M84.749,46.944h3.439v-3.44h-3.439V46.944L84.749,46.944z"/>
					</g>
				</g>
				<g>
					<g>
						<rect x="84.667" y="80.263" fill="#333333" width="3.603" height="3.603"/>
					</g>
				</g>
				<g>
					<g>
						<rect x="121.101" y="42.937" fill="#333333" width="3.603" height="3.603"/>
					</g>
				</g>
				<g>
					<g>
						<rect x="121.101" y="80.819" fill="#333333" width="3.603" height="3.603"/>
					</g>
				</g>
				<g>
					<g>
						<polygon fill="#333333" points="120.751,86.286 121.606,84.36 119.682,83.505 119.958,84.222 116.051,85.726 116.537,86.985 
							120.443,85.483 						"/>
					</g>
				</g>
			</g>
		</g>
		<g>
			<g>
				<path fill="#FF916E" d="M66.169,40.323h-0.618c-1.337,0-2.432,1.094-2.432,2.432v26.234c0,0.41,0.103,0.797,0.284,1.137v0.484
					h0.342c0.446,0.496,1.09,0.812,1.805,0.812h0.618c1.337,0,2.432-1.096,2.432-2.434V42.755
					C68.601,41.417,67.506,40.323,66.169,40.323z"/>
			</g>
			<g>
				<g>
					<path fill="#333333" d="M69.223,69.423c0,0.373-0.303,0.674-0.676,0.674h-5.404c-0.372,0-0.676-0.301-0.676-0.674l0,0
						c0-0.373,0.303-0.676,0.676-0.676h5.404C68.921,68.747,69.223,69.05,69.223,69.423L69.223,69.423z"/>
				</g>
			</g>
			<g>
				<g>
					<path fill="#333333" d="M67.762,69.423H63.93c0,0-1.462,1.352-1.462,3.107c0,1.756,3.378,5.295,3.378,5.295
						s3.106-3.27,3.377-5.025C69.493,71.044,67.762,69.423,67.762,69.423z"/>
				</g>
			</g>
			<path fill="#FFFFFF" d="M65.911,71.921c-0.298,0-0.54,0.24-0.54,0.541c0,0.262,0.192,0.471,0.441,0.52v4.807l0.169-0.111v-4.689
				c0.264-0.036,0.471-0.253,0.471-0.525C66.452,72.161,66.21,71.921,65.911,71.921z"/>
			<g>
				<path fill="#FFFFFF" d="M64.484,52.407h-0.083c-0.41,0-0.744-0.334-0.744-0.742v-2.869c0-0.408,0.334-0.744,0.744-0.744h0.083
					c0.41,0,0.744,0.336,0.744,0.744v2.869C65.227,52.073,64.893,52.407,64.484,52.407z"/>
			</g>
			<g>
				<path fill="#FFFFFF" d="M64.484,57.778h-0.083c-0.41,0-0.744-0.336-0.744-0.744v-1.652c0-0.41,0.334-0.744,0.744-0.744h0.083
					c0.41,0,0.744,0.334,0.744,0.744v1.652C65.227,57.442,64.893,57.778,64.484,57.778z"/>
			</g>
		</g>
		<g>
			<g>
				<path fill="#333333" d="M117.816,136.579h-9.411c-0.212,0-0.384-0.172-0.384-0.385c0-0.211,0.172-0.383,0.384-0.383h9.411
					c0.212,0,0.384,0.172,0.384,0.383C118.201,136.407,118.028,136.579,117.816,136.579z"/>
			</g>
			<g>
				<path fill="#333333" d="M117.286,133.655h-1.519c-0.212,0-0.384-0.172-0.384-0.383c0-0.213,0.172-0.385,0.384-0.385h1.519
					c0.213,0,0.384,0.172,0.384,0.385C117.671,133.483,117.499,133.655,117.286,133.655z"/>
			</g>
			<g>
				<path fill="#333333" d="M125.814,133.655h-5.731c-0.212,0-0.384-0.172-0.384-0.383c0-0.213,0.172-0.385,0.384-0.385h5.731
					c0.212,0,0.385,0.172,0.385,0.385C126.199,133.483,126.026,133.655,125.814,133.655z"/>
			</g>
			<g>
				<path fill="#333333" d="M119.986,129.095h-6.918c-0.212,0-0.383-0.172-0.383-0.383c0-0.213,0.171-0.385,0.383-0.385h6.918
					c0.213,0,0.384,0.172,0.384,0.385C120.37,128.923,120.199,129.095,119.986,129.095z"/>
			</g>
		</g>
		<g>
			<g>
				<path fill="#333333" d="M50.744,64.122h-9.411c-0.212,0-0.384-0.172-0.384-0.385c0-0.211,0.171-0.385,0.384-0.385h9.411
					c0.212,0,0.384,0.174,0.384,0.385C51.128,63.95,50.956,64.122,50.744,64.122z"/>
			</g>
			<g>
				<path fill="#333333" d="M50.214,61.196h-1.52c-0.211,0-0.384-0.172-0.384-0.383c0-0.213,0.172-0.385,0.384-0.385h1.52
					c0.212,0,0.384,0.172,0.384,0.385C50.598,61.024,50.426,61.196,50.214,61.196z"/>
			</g>
			<g>
				<path fill="#333333" d="M58.742,61.196h-5.73c-0.212,0-0.384-0.172-0.384-0.383c0-0.213,0.171-0.385,0.384-0.385h5.73
					c0.212,0,0.384,0.172,0.384,0.385C59.126,61.024,58.954,61.196,58.742,61.196z"/>
			</g>
			<g>
				<path fill="#333333" d="M52.914,56.638h-6.918c-0.212,0-0.384-0.172-0.384-0.383c0-0.213,0.172-0.385,0.384-0.385h6.918
					c0.212,0,0.384,0.172,0.384,0.385C53.298,56.466,53.126,56.638,52.914,56.638z"/>
			</g>
		</g>
		<g>
			<path fill="#333333" d="M64.563,129.702h-5.731c-0.212,0-0.384-0.172-0.384-0.383c0-0.213,0.171-0.385,0.384-0.385h5.731
				c0.212,0,0.384,0.172,0.384,0.385C64.947,129.53,64.775,129.702,64.563,129.702z"/>
		</g>
		<g>
			<g>
				<path fill="#333333" d="M68.33,132.026h-3.054c-0.212,0-0.384-0.172-0.384-0.385c0-0.211,0.172-0.383,0.384-0.383h3.054
					c0.212,0,0.384,0.172,0.384,0.383C68.714,131.855,68.542,132.026,68.33,132.026z"/>
			</g>
			<g>
				<path fill="#333333" d="M66.802,133.554c-0.212,0-0.384-0.172-0.384-0.385v-3.053c0-0.213,0.171-0.385,0.384-0.385
					c0.211,0,0.384,0.172,0.384,0.385v3.053C67.186,133.382,67.014,133.554,66.802,133.554z"/>
			</g>
		</g>
		<g>
			<path fill="#333333" d="M79.231,61.675h-5.73c-0.212,0-0.384-0.172-0.384-0.385c0-0.211,0.171-0.383,0.384-0.383h5.73
				c0.212,0,0.385,0.172,0.385,0.383C79.616,61.503,79.444,61.675,79.231,61.675z"/>
		</g>
		<g>
			<g>
				<path fill="#333333" d="M82.998,63.999h-3.054c-0.212,0-0.384-0.172-0.384-0.385c0-0.211,0.172-0.385,0.384-0.385h3.054
					c0.212,0,0.384,0.174,0.384,0.385C83.382,63.827,83.21,63.999,82.998,63.999z"/>
			</g>
			<g>
				<path fill="#333333" d="M81.471,65.526c-0.212,0-0.384-0.172-0.384-0.385v-3.055c0-0.211,0.171-0.383,0.384-0.383
					s0.384,0.172,0.384,0.383v3.055C81.855,65.355,81.683,65.526,81.471,65.526z"/>
			</g>
		</g>
		<g>
			<path fill="#333333" d="M67.257,138.946h-2.895c-0.212,0-0.384-0.174-0.384-0.385c0-0.213,0.172-0.385,0.384-0.385h2.895
				c0.211,0,0.384,0.172,0.384,0.385C67.641,138.772,67.468,138.946,67.257,138.946z"/>
		</g>
	</g>
</g>
</svg>
